{"glyphs":{"0":{"ha":458,"x_min":32,"x_max":488,"o":"m 142 -12 l 142 -12 q 81 7 105 -12 q 44 55 56 25 q 32 119 32 85 l 32 119 q 47 206 32 157 q 89 307 62 255 q 150 408 115 359 q 226 497 185 457 q 309 559 266 536 q 394 582 352 582 l 394 582 q 468 550 447 582 q 488 470 488 517 l 488 470 q 475 380 488 430 q 439 275 462 329 q 383 169 415 220 q 313 77 351 118 q 231 12 274 36 q 142 -12 188 -12 z m 154 8 l 154 8 q 223 35 188 8 q 291 106 258 61 q 353 204 324 150 q 403 312 381 257 q 437 413 425 366 q 449 489 449 459 l 449 489 q 438 541 449 518 q 395 563 427 563 l 395 563 q 327 536 362 563 q 259 465 292 509 q 195 366 225 420 q 142 258 165 312 q 106 159 119 204 q 93 85 93 113 l 93 85 q 106 31 93 54 q 154 8 119 8 z"},"1":{"ha":303,"x_min":26,"x_max":396,"o":"m 38 -3 l 38 -3 q 29 0 32 -3 l 29 0 q 27 5 26 3 l 27 5 q 163 249 95 127 q 299 491 231 370 l 299 491 q 220 425 260 456 q 135 366 180 393 l 135 366 q 129 365 133 365 l 129 365 q 127 369 127 366 q 126 374 126 372 l 126 374 q 129 381 126 378 l 129 381 q 221 452 170 412 q 313 535 272 491 l 313 535 q 335 557 324 547 q 358 568 346 567 l 358 568 l 389 571 q 393 572 391 572 q 396 571 394 571 l 396 571 l 396 566 l 90 4 q 65 0 83 0 q 38 -3 47 -1 z"},"2":{"ha":392,"x_min":-64,"x_max":442,"o":"m 178 -12 l 178 -12 q 145 -4 167 -12 q 98 14 123 3 q 52 34 73 24 q 21 47 30 43 l 21 47 l -48 -8 q -58 -7 -52 -10 q -62 0 -64 -4 l -62 0 q -47 19 -61 2 q -14 56 -33 35 q 19 92 4 76 q 36 109 34 108 l 36 109 l 45 109 q 59 107 51 109 l 59 107 q 123 165 84 129 q 205 245 162 201 q 287 336 248 289 q 349 426 325 382 q 373 503 373 469 l 373 503 q 360 537 373 527 q 324 547 347 547 l 324 547 q 253 522 286 547 q 196 461 220 497 q 158 391 171 424 l 158 391 q 154 387 156 387 l 154 387 q 142 387 148 384 l 142 387 q 141 394 140 392 l 141 394 q 187 481 157 438 q 258 551 216 523 q 351 579 300 579 l 351 579 q 416 558 389 579 q 442 495 442 536 l 442 495 q 421 433 442 468 q 365 359 400 398 q 289 281 330 320 q 207 207 248 242 q 132 145 166 172 q 79 101 98 117 l 79 101 q 108 88 89 97 q 149 68 127 78 q 190 51 171 58 q 217 44 208 44 l 217 44 q 257 55 238 44 q 290 79 275 65 q 316 105 305 93 q 330 117 326 116 l 330 117 q 336 115 332 118 q 338 107 339 112 l 338 107 q 308 72 326 92 q 267 33 289 52 q 221 1 244 14 q 178 -12 198 -12 z"},"3":{"ha":387,"x_min":-47,"x_max":431,"o":"m 45 -12 l 45 -12 q -3 -7 22 -12 q -47 12 -28 -2 l -47 12 l -47 18 l -41 24 l -35 26 q -1 15 -21 19 q 34 11 18 11 l 34 11 q 115 32 73 11 q 193 88 157 53 q 252 163 229 122 q 274 244 274 204 l 274 244 q 254 291 274 276 q 205 306 233 306 l 205 306 q 170 302 188 306 q 134 292 151 297 l 134 292 l 127 295 l 126 304 l 130 310 q 196 340 157 321 q 273 385 235 359 q 336 443 311 411 q 361 512 361 475 l 361 512 q 323 548 361 548 l 323 548 q 271 533 297 548 q 222 498 244 518 q 183 458 199 477 l 183 458 l 178 458 l 171 465 l 171 470 q 222 523 194 498 q 284 564 250 548 q 355 580 317 580 l 355 580 q 408 566 385 580 q 431 519 431 552 l 431 519 q 408 451 431 481 q 349 397 384 420 q 275 356 313 373 q 207 328 237 339 l 207 328 q 269 320 237 328 q 323 292 301 312 q 345 236 345 272 l 345 236 q 317 146 345 190 q 242 66 288 102 q 144 9 196 30 q 45 -12 92 -12 z"},"4":{"ha":406,"x_min":20,"x_max":435,"o":"m 169 -8 l 169 -8 l 165 -7 l 165 -3 q 175 18 165 -1 q 198 63 184 36 q 226 117 211 89 q 252 164 241 144 q 265 189 262 184 l 265 189 l 20 182 l 20 190 q 22 195 21 194 q 24 197 23 196 l 24 197 q 103 285 59 241 q 181 365 147 328 l 181 365 q 249 442 215 403 q 317 527 282 481 l 317 527 q 349 558 334 550 q 382 569 364 566 q 427 576 400 571 l 427 576 l 433 572 l 434 565 q 417 537 435 558 q 368 486 399 516 q 299 420 337 455 q 222 349 261 384 q 148 284 182 314 q 90 232 114 253 q 59 205 66 211 l 59 205 l 277 209 l 342 336 q 368 352 350 350 q 399 355 386 354 l 399 355 l 406 353 l 406 346 q 397 326 406 345 q 376 283 388 307 q 353 238 363 258 q 339 213 342 218 l 339 213 l 368 213 q 374 209 374 213 l 374 209 q 370 197 374 205 l 370 197 q 363 193 368 193 l 363 193 l 328 192 q 309 153 322 181 q 280 94 295 125 q 251 38 264 62 q 233 8 238 13 l 233 8 q 217 2 231 6 q 189 -5 203 -2 q 169 -8 174 -8 z"},"5":{"ha":372,"x_min":-55,"x_max":467,"o":"m 17 -13 l 17 -13 q -19 -11 3 -13 q -54 -1 -42 -9 l -54 -1 q -55 5 -55 1 l -55 5 q -52 11 -54 9 q -50 13 -51 12 l -50 13 q -45 15 -48 15 l -45 15 q -13 8 -30 10 q 18 5 3 5 l 18 5 q 106 29 60 5 q 190 91 151 53 q 252 174 228 129 q 276 261 276 219 l 276 261 q 259 309 276 292 q 210 326 241 326 l 210 326 q 142 306 174 326 q 77 269 109 285 l 77 269 q 72 271 74 269 l 72 271 q 72 277 70 273 l 72 277 q 86 306 74 284 q 115 359 97 328 q 151 423 132 389 q 188 485 170 456 q 218 534 205 514 q 233 556 230 553 l 233 556 q 258 563 244 561 q 286 564 271 564 l 286 564 q 334 562 309 564 q 382 559 358 559 l 382 559 q 426 563 405 559 q 463 580 447 567 l 463 580 l 467 579 q 428 526 454 544 q 367 502 401 508 q 298 495 333 495 l 298 495 q 257 497 277 495 q 218 499 236 498 l 218 499 l 108 306 q 173 338 137 325 q 242 351 209 351 l 242 351 q 314 330 284 351 q 344 264 344 309 l 344 264 q 314 163 344 212 q 234 74 283 113 q 128 11 185 34 q 17 -13 71 -13 z"},"6":{"ha":395,"x_min":10,"x_max":412,"o":"m 120 -12 l 120 -12 q 40 17 70 -12 q 10 97 10 45 l 10 97 q 37 209 10 152 q 106 322 63 266 q 201 429 149 378 q 305 522 253 480 q 398 592 356 563 l 398 592 q 408 589 403 596 q 409 579 412 582 l 409 579 q 373 546 392 563 q 336 513 353 528 l 336 513 q 268 445 302 482 q 207 372 234 407 l 207 372 q 162 308 186 344 q 118 232 138 272 q 84 151 97 191 q 70 74 70 110 l 70 74 q 84 31 70 49 q 125 12 98 12 l 125 12 q 195 39 161 12 q 256 108 229 66 q 298 192 282 149 q 314 267 314 235 l 314 267 q 307 296 314 284 q 281 307 300 307 l 281 307 q 233 290 256 307 q 191 248 210 273 q 157 195 171 222 q 135 148 143 168 l 135 148 q 131 142 134 142 l 131 142 q 123 141 128 141 l 123 141 q 119 148 116 143 l 119 148 q 143 210 126 177 q 185 272 160 243 q 241 320 210 301 q 305 338 271 338 l 305 338 q 359 316 340 338 q 378 261 378 294 l 378 261 q 355 171 378 218 q 293 82 331 123 q 210 14 255 40 q 120 -12 164 -12 z"},"7":{"ha":347,"x_min":10,"x_max":463,"o":"m 18 -5 l 18 -5 l 11 -3 l 10 1 q 30 38 10 9 q 81 109 49 67 q 151 199 112 150 q 230 296 190 247 q 305 387 270 344 q 365 459 340 429 q 398 499 390 489 l 398 499 q 236 502 319 502 l 236 502 q 187 491 203 502 q 162 466 170 480 q 149 441 154 452 q 132 429 143 429 l 132 429 l 129 430 l 128 437 q 152 506 140 480 q 179 545 163 531 q 222 563 195 558 q 294 567 249 567 l 294 567 q 365 565 329 567 q 438 558 401 563 l 438 558 q 447 566 441 560 q 457 571 453 571 l 457 571 q 463 564 463 569 l 463 564 q 461 558 463 562 l 461 558 q 441 528 447 537 q 430 511 435 518 q 413 488 424 503 q 377 440 401 472 q 309 349 353 408 l 309 349 q 222 219 265 290 q 138 86 179 148 l 138 86 q 129 71 136 83 q 113 43 121 58 q 97 17 104 28 q 89 4 90 5 l 89 4 q 56 -3 78 -3 q 18 -5 33 -4 z"},"8":{"ha":384,"x_min":-5,"x_max":444,"o":"m 109 -12 l 109 -12 q 54 -1 80 -12 q 12 32 28 10 q -5 86 -5 54 l -5 86 q 17 158 -5 122 q 71 227 38 193 q 139 288 104 260 q 200 335 173 316 l 200 335 q 182 416 182 374 l 182 416 q 206 497 182 460 q 269 557 230 534 q 351 579 308 579 l 351 579 q 417 561 389 579 q 444 503 444 543 l 444 503 q 429 441 444 471 q 390 382 413 410 q 340 329 366 353 q 292 286 314 305 l 292 286 q 309 231 306 255 q 311 173 311 206 l 311 173 q 293 102 311 135 q 246 43 275 68 q 181 3 217 17 q 109 -12 145 -12 z m 284 306 l 284 306 q 340 360 312 328 q 388 429 368 392 q 407 503 407 466 l 407 503 q 353 559 407 559 l 353 559 q 300 543 324 559 q 262 502 276 527 q 248 449 248 477 l 248 449 q 261 376 248 416 q 284 306 273 336 z m 111 9 l 111 9 q 180 31 149 9 q 229 87 210 53 q 247 157 247 121 l 247 157 q 233 238 247 194 q 204 316 219 281 l 204 316 q 131 254 169 290 q 67 175 93 218 q 40 83 40 132 l 40 83 q 58 30 40 50 q 111 9 76 9 z"},"9":{"ha":402,"x_min":58,"x_max":443,"o":"m 64 -23 l 64 -23 q 60 -13 58 -19 l 60 -13 q 64 -8 61 -11 l 64 -8 q 256 176 176 72 q 371 416 336 280 l 371 416 q 380 455 377 439 q 382 489 382 471 l 382 489 q 370 539 382 518 q 325 559 357 559 l 325 559 q 255 535 289 559 q 193 474 221 511 q 149 397 165 437 q 132 323 132 356 l 132 323 q 145 283 132 299 q 183 267 157 267 l 183 267 q 245 291 218 267 q 290 347 271 314 q 321 406 309 379 l 321 406 q 325 410 322 409 l 325 410 q 336 409 330 412 l 336 409 q 337 403 339 406 l 337 403 q 309 343 327 376 q 265 279 290 310 q 210 229 240 248 q 147 209 180 209 l 147 209 q 93 232 111 209 q 75 287 75 254 l 75 287 q 92 361 75 321 q 136 439 108 400 q 199 509 164 477 q 271 560 234 541 q 343 579 308 579 l 343 579 q 400 562 378 579 q 433 517 422 544 q 443 458 443 489 l 443 458 q 419 346 443 402 q 354 236 394 289 q 264 134 313 182 q 164 46 214 85 q 71 -23 114 6 l 71 -23 q 64 -23 68 -25 z"},"A":{"ha":716,"x_min":18,"x_max":864,"o":"m 545 -64 l 545 -64 q 483 -29 501 -64 q 465 51 465 5 l 465 51 q 477 132 465 92 q 504 193 488 172 l 504 193 q 437 120 477 161 q 349 41 397 79 q 250 -22 301 3 q 149 -47 199 -47 l 149 -47 q 51 -5 83 -47 q 18 110 18 37 l 18 110 q 38 233 18 167 q 95 366 57 298 l 95 366 q 136 432 113 399 q 184 493 158 464 l 184 493 q 124 527 153 508 q 77 571 95 545 q 59 633 59 597 l 59 633 q 68 668 59 652 q 86 683 76 683 l 86 683 q 95 672 95 683 l 95 672 q 91 657 95 665 l 91 657 q 86 633 86 644 l 86 633 q 105 583 86 606 q 151 542 124 559 q 201 515 178 525 l 201 515 q 342 645 265 585 q 506 740 418 704 q 691 776 594 776 l 691 776 q 818 741 772 776 q 864 649 864 705 l 864 649 q 836 564 864 599 q 761 505 807 528 q 662 468 715 481 q 556 449 608 454 q 465 443 504 443 l 465 443 q 355 450 408 443 q 248 472 301 457 l 248 472 q 192 387 222 435 q 134 285 161 338 q 89 179 106 231 q 71 81 71 126 l 71 81 q 94 8 71 32 q 156 -17 117 -17 l 156 -17 q 256 12 203 -17 q 361 86 308 40 q 462 186 414 132 q 548 293 510 240 q 608 387 586 346 l 608 387 q 641 433 625 419 q 668 446 657 446 l 668 446 q 685 438 679 446 q 691 415 691 429 l 691 415 q 666 359 691 387 l 666 359 q 600 265 632 320 q 548 149 568 209 q 528 35 528 88 l 528 35 q 540 -18 528 -2 q 570 -34 551 -34 l 570 -34 q 629 -14 599 -34 q 685 38 658 5 q 735 112 712 71 q 775 193 758 152 l 775 193 q 784 192 780 193 q 787 184 787 191 l 787 184 q 747 97 770 141 q 693 17 723 53 q 626 -42 663 -20 q 545 -64 589 -64 z m 456 467 l 456 467 q 545 472 496 467 q 643 488 594 476 q 732 522 691 500 q 798 578 773 544 q 823 661 823 612 l 823 661 q 787 728 823 705 q 694 751 750 751 l 694 751 q 525 715 601 751 q 385 619 448 678 q 264 492 321 560 l 264 492 q 355 473 308 479 q 456 467 401 467 z"},"B":{"ha":1047,"x_min":11,"x_max":1093,"o":"m 178 -39 l 178 -39 q 128 -34 156 -39 q 73 -19 99 -30 q 29 13 46 -8 q 11 64 11 33 l 11 64 q 44 132 11 101 q 137 162 77 162 l 137 162 q 219 148 181 162 q 294 113 257 133 q 369 72 330 92 l 369 72 q 461 191 419 120 q 544 344 502 262 q 634 507 585 425 q 746 661 682 589 l 746 661 l 804 726 q 727 736 767 732 q 644 739 687 739 l 644 739 q 516 729 585 739 q 378 698 446 719 q 253 645 309 677 q 162 569 196 613 q 128 468 128 525 l 128 468 q 146 406 128 429 q 190 373 163 383 q 243 362 216 362 l 243 362 q 319 383 288 362 q 366 430 350 403 q 381 478 381 457 l 381 478 q 391 485 381 485 l 391 485 q 401 469 401 485 l 401 469 q 376 398 401 428 q 314 352 351 368 q 238 336 276 336 l 238 336 q 167 353 203 336 q 106 404 130 370 q 82 488 82 438 l 82 488 q 116 595 82 548 q 207 674 150 641 q 334 729 264 707 q 476 760 404 750 q 610 770 547 770 l 610 770 q 724 765 668 770 q 828 748 779 759 l 828 748 q 857 769 842 760 q 883 783 871 778 l 883 783 q 901 788 894 788 l 901 788 q 909 782 909 788 l 909 782 q 898 771 909 779 l 898 771 q 876 753 885 761 q 864 740 866 744 l 864 740 q 1030 669 966 714 q 1093 561 1093 623 l 1093 561 q 1058 472 1093 510 q 967 411 1023 433 q 846 386 910 389 l 846 386 q 990 311 936 357 q 1043 194 1043 265 l 1043 194 q 1013 98 1043 141 q 932 25 982 55 q 821 -22 881 -6 q 702 -39 761 -39 l 702 -39 q 538 -20 609 -39 q 389 34 466 -1 l 389 34 q 178 -39 292 -39 z m 688 -10 l 688 -10 q 801 9 750 -10 q 890 59 852 28 q 948 128 927 90 q 968 203 968 166 l 968 203 q 947 271 968 238 q 881 325 926 303 l 881 325 q 779 366 823 354 q 709 387 735 377 l 709 387 q 696 394 699 392 q 693 398 693 396 l 693 398 q 703 414 693 408 q 726 420 713 420 l 726 420 q 769 417 746 420 q 818 414 792 414 l 818 414 q 930 440 883 414 q 1003 505 977 466 q 1028 582 1028 544 l 1028 582 q 990 658 1028 625 q 852 716 952 690 l 852 716 q 752 562 802 647 q 652 389 702 476 q 551 223 602 301 q 449 89 500 145 l 449 89 q 430 70 437 76 q 411 52 423 63 l 411 52 q 543 9 471 27 q 688 -10 615 -10 z m 158 -8 l 158 -8 q 261 6 214 -11 q 347 52 307 22 l 347 52 q 286 83 323 64 q 211 117 249 102 q 145 131 173 131 l 145 131 q 89 112 108 131 q 70 67 70 92 l 70 67 q 92 18 70 41 q 158 -8 114 -6 z"},"C":{"ha":714,"x_min":60,"x_max":855,"o":"m 371 -107 l 371 -107 q 210 -70 280 -107 q 100 38 139 -34 q 60 213 60 109 l 60 213 q 76 337 60 275 q 120 456 92 399 q 181 561 147 513 l 181 561 q 166 691 166 621 l 166 691 q 178 792 166 744 l 178 792 q 192 806 182 806 l 192 806 q 199 796 200 806 l 199 796 q 194 754 196 776 q 192 700 192 731 l 192 700 q 203 590 192 642 l 203 590 q 223 614 213 603 l 223 614 q 320 699 264 659 q 445 762 376 738 q 590 786 513 786 l 590 786 q 722 760 662 786 q 819 684 782 733 q 855 564 855 634 l 855 564 q 832 474 855 520 q 765 390 808 428 q 660 327 721 351 q 522 303 598 303 l 522 303 q 339 347 422 303 q 210 481 256 391 l 210 481 q 151 337 170 410 q 132 198 132 264 l 132 198 q 164 42 132 102 q 253 -46 196 -18 q 382 -75 309 -75 l 382 -75 q 611 -9 512 -75 q 773 193 709 56 l 773 193 q 785 184 785 193 l 785 184 q 616 -35 723 36 q 371 -107 508 -107 z m 253 548 l 253 548 q 228 511 240 530 l 228 511 q 335 379 263 429 q 516 329 407 329 l 516 329 q 640 350 585 329 q 732 406 694 371 q 789 484 769 441 q 809 569 809 526 l 809 569 q 781 662 809 622 q 703 725 752 702 q 592 747 654 747 l 592 747 q 468 721 530 747 q 350 650 405 695 q 253 548 294 605 z"},"D":{"ha":1050,"x_min":34,"x_max":1061,"o":"m 196 -43 l 196 -43 q 118 -31 155 -43 q 58 5 81 -19 q 34 65 34 29 l 34 65 q 67 132 34 102 q 159 162 99 162 l 159 162 q 279 134 222 162 q 398 72 335 105 l 398 72 q 493 191 451 123 q 573 333 534 258 q 652 483 611 408 q 744 621 693 557 l 744 621 q 762 644 753 632 q 781 666 771 655 l 781 666 q 665 716 727 698 q 537 733 603 733 l 537 733 q 385 712 455 733 q 264 656 315 691 q 183 576 212 620 q 154 484 154 531 l 154 484 q 172 415 154 442 q 216 374 189 387 q 269 361 243 361 l 269 361 q 329 375 304 361 q 370 408 354 388 q 394 447 386 428 q 403 478 402 466 l 403 478 q 412 485 403 485 l 412 485 q 423 468 426 485 l 423 468 q 393 399 418 428 q 333 353 368 369 q 261 336 298 336 l 261 336 q 181 353 217 336 q 124 403 145 369 q 102 485 102 436 l 102 485 q 137 602 102 550 q 233 689 172 653 q 373 744 294 725 q 540 763 452 763 l 540 763 q 677 747 608 763 q 808 697 746 730 l 808 697 q 862 749 834 726 q 918 783 889 771 l 918 783 q 939 788 931 788 l 939 788 q 945 785 945 788 l 945 785 q 922 760 945 780 l 922 760 q 891 724 909 748 q 854 670 873 699 l 854 670 q 961 576 914 631 q 1034 450 1007 520 q 1061 293 1061 379 l 1061 293 q 1032 147 1061 209 q 953 43 1003 84 q 838 -18 903 2 q 701 -39 773 -39 l 701 -39 q 544 -16 616 -39 q 409 36 471 7 l 409 36 q 308 -23 360 -3 q 196 -43 255 -43 z m 786 563 l 786 563 q 735 480 765 530 q 668 370 705 429 q 591 252 631 311 q 511 142 551 193 q 432 55 470 90 l 432 55 q 549 10 485 29 q 694 -9 613 -9 l 694 -9 q 854 30 786 -9 q 960 135 922 68 q 998 285 998 201 l 998 285 q 952 484 998 394 q 829 633 906 573 l 829 633 q 805 594 816 612 q 786 563 794 575 z m 196 -12 l 196 -12 q 296 7 247 -15 q 376 53 344 28 l 376 53 q 266 106 316 82 q 172 130 215 130 l 172 130 q 118 110 137 130 q 99 64 99 89 l 99 64 q 125 11 99 32 q 196 -12 150 -10 z"},"E":{"ha":819,"x_min":22,"x_max":863,"o":"m 326 -59 l 326 -59 q 155 -30 222 -59 q 55 46 87 -1 q 22 146 22 93 l 22 146 q 53 255 22 206 q 135 340 84 304 q 246 397 185 376 q 366 421 307 418 l 366 421 q 282 474 314 440 q 249 547 249 507 l 249 547 q 275 626 249 588 q 343 695 300 663 q 441 749 386 726 q 554 785 495 772 q 668 797 613 797 l 668 797 q 810 767 757 797 q 863 690 863 737 l 863 690 q 817 605 863 647 q 688 545 770 563 l 688 545 q 667 542 672 542 l 667 542 q 656 551 656 542 l 656 551 q 660 556 656 554 q 675 561 663 557 l 675 561 q 769 618 734 581 q 804 695 804 654 l 804 695 q 771 752 804 730 q 670 773 737 773 l 670 773 q 549 756 610 773 q 437 708 488 739 q 355 637 386 677 q 324 550 324 597 l 324 550 q 344 495 324 516 q 395 462 364 474 q 460 442 426 449 q 521 425 493 434 l 521 425 q 534 417 531 422 q 537 407 537 412 l 537 407 q 523 385 537 394 q 482 376 508 376 l 482 376 q 447 377 466 376 q 405 377 427 377 l 405 377 q 340 374 374 377 q 264 358 305 371 l 264 358 q 174 308 212 342 q 114 233 135 274 q 93 152 93 192 l 93 152 q 117 58 93 100 q 193 -8 141 16 q 330 -33 245 -33 l 330 -33 q 481 -13 408 -33 q 616 39 554 7 q 722 104 678 70 l 722 104 q 781 163 758 133 q 803 215 803 193 l 803 215 q 764 249 803 243 l 764 249 q 754 255 754 250 l 754 255 q 768 263 754 263 l 768 263 q 820 244 797 263 q 842 195 842 224 l 842 195 q 761 75 842 138 l 761 75 q 642 6 712 36 q 490 -41 571 -24 q 326 -59 408 -59 z"},"F":{"ha":1053,"x_min":26,"x_max":1417,"o":"m 388 -101 l 388 -101 q 197 -67 278 -101 q 71 27 115 -33 q 26 162 26 86 l 26 162 q 48 275 26 224 q 107 360 70 326 q 187 405 143 394 l 187 405 q 194 400 194 406 l 194 400 q 189 392 194 395 l 189 392 q 110 303 137 361 q 82 174 82 245 l 82 174 q 122 42 82 97 q 232 -43 162 -14 q 388 -73 301 -73 l 388 -73 q 531 -46 463 -73 q 655 26 598 -20 q 758 131 712 72 q 834 253 803 189 l 834 253 q 848 282 841 268 q 862 310 855 296 l 862 310 q 819 312 838 311 q 792 313 799 313 l 792 313 q 735 310 765 313 q 678 296 704 306 q 634 265 651 286 l 634 265 q 626 254 627 258 q 621 250 624 250 l 621 250 q 614 257 617 250 q 615 271 611 263 l 615 271 q 680 341 638 322 q 774 359 722 359 l 774 359 q 816 356 785 359 q 880 348 846 352 l 880 348 q 961 509 924 437 q 1029 629 997 581 l 1029 629 q 876 672 957 653 q 702 690 795 690 l 702 690 q 577 671 633 690 q 482 620 521 652 q 421 549 442 588 q 400 471 400 510 l 400 471 q 417 401 400 427 q 462 364 434 375 q 518 352 489 352 l 518 352 q 592 373 561 352 q 640 421 622 394 q 662 464 658 447 l 662 464 q 674 480 666 480 l 674 480 q 684 466 686 480 l 684 466 q 653 390 678 422 q 592 342 628 358 q 516 325 556 325 l 516 325 q 437 345 475 325 q 375 403 399 365 q 351 495 351 441 l 351 495 q 371 583 351 539 q 430 663 390 626 q 530 721 469 699 q 674 743 591 743 l 674 743 q 795 730 733 743 q 921 696 857 716 q 1046 653 984 675 l 1046 653 q 1086 695 1067 680 q 1124 709 1105 709 l 1124 709 q 1135 706 1132 709 q 1138 699 1138 702 l 1138 699 q 1135 690 1138 695 q 1124 685 1132 685 l 1124 685 q 1062 648 1091 685 l 1062 648 q 1201 606 1134 624 q 1324 587 1267 587 l 1324 587 q 1382 597 1368 587 q 1396 623 1396 606 l 1396 623 q 1403 634 1396 634 l 1403 634 q 1413 628 1408 634 q 1417 612 1417 621 l 1417 612 q 1391 573 1417 588 q 1317 558 1364 558 l 1317 558 q 1188 579 1255 558 q 1046 624 1121 599 l 1046 624 q 993 507 1019 579 q 932 343 967 434 l 932 343 q 1023 337 975 339 q 1101 334 1071 334 l 1101 334 q 1111 328 1111 334 l 1111 328 q 1088 314 1111 320 l 1088 314 q 1038 308 1073 310 q 964 306 1002 306 l 964 306 q 944 307 956 306 q 918 307 932 307 l 918 307 q 900 261 909 284 q 879 212 890 237 l 879 212 q 777 52 837 113 q 648 -43 716 -10 q 512 -89 579 -77 q 388 -101 444 -101 z"},"G":{"ha":702,"x_min":-46,"x_max":799,"o":"m 82 -376 l 82 -376 q -11 -354 23 -376 q -46 -298 -46 -332 l -46 -298 q -22 -238 -46 -266 q 41 -187 2 -210 q 125 -147 79 -165 q 214 -118 170 -130 q 290 -103 257 -107 l 290 -103 q 359 -95 321 -98 q 435 -89 396 -92 q 504 -87 473 -87 l 504 -87 q 565 32 541 -24 q 606 161 588 88 l 606 161 l 610 177 q 557 134 591 159 q 477 83 522 108 q 380 40 431 57 q 274 23 328 23 l 274 23 q 152 57 203 23 q 73 152 100 91 q 45 291 45 212 l 45 291 q 57 392 45 338 q 96 501 69 445 l 96 501 q 48 572 65 533 q 30 652 30 611 l 30 652 q 45 724 30 688 q 92 792 60 759 l 92 792 q 109 802 101 802 l 109 802 q 113 798 113 802 l 113 798 q 106 784 113 792 l 106 784 q 72 725 83 756 q 61 663 61 694 l 61 663 q 75 594 61 628 q 113 531 88 560 l 113 531 q 185 638 139 586 q 291 732 230 690 q 424 798 352 773 q 574 822 496 822 l 574 822 q 739 777 678 822 q 799 641 799 732 l 799 641 q 776 555 799 598 q 705 476 752 512 q 587 418 657 440 q 423 394 516 396 l 423 394 q 279 413 350 393 q 159 464 208 432 l 159 464 q 123 361 134 411 q 111 266 111 310 l 111 266 q 161 112 111 165 q 293 59 210 59 l 293 59 q 384 73 338 59 q 468 108 429 86 q 535 155 507 130 q 571 200 562 179 l 571 200 q 617 273 594 252 q 657 293 639 293 l 657 293 q 683 280 672 293 q 690 243 693 266 l 690 243 q 645 82 680 160 q 553 -87 609 4 l 553 -87 q 676 -94 621 -88 q 774 -112 730 -101 l 774 -112 q 791 -119 786 -115 q 795 -127 795 -124 l 795 -127 q 783 -134 795 -134 l 783 -134 q 766 -131 777 -134 l 766 -131 q 705 -120 743 -125 q 624 -114 667 -116 q 540 -112 580 -112 l 540 -112 q 441 -220 498 -172 q 319 -304 383 -269 q 193 -357 254 -339 q 82 -376 131 -376 z m 396 424 l 396 424 q 528 442 464 424 q 643 492 592 460 q 725 567 694 524 q 755 657 755 609 l 755 657 q 731 733 755 701 q 668 781 706 764 q 587 798 630 798 l 587 798 q 457 772 519 798 q 342 703 395 746 q 246 604 289 659 q 172 491 202 549 l 172 491 q 272 442 213 460 q 396 424 330 424 z m 80 -350 l 80 -350 q 172 -334 119 -350 q 283 -289 225 -319 q 395 -215 341 -259 q 488 -114 448 -171 l 488 -114 q 394 -118 440 -115 q 301 -130 347 -122 l 301 -130 q 240 -145 276 -134 q 164 -173 203 -156 q 91 -211 125 -190 q 35 -256 56 -232 q 13 -305 13 -280 l 13 -305 q 29 -336 13 -323 q 80 -350 44 -350 z"},"H":{"ha":1395,"x_min":-8,"x_max":1544,"o":"m 308 -173 l 308 -173 q 194 -159 250 -173 q 92 -115 137 -146 q 19 -31 46 -84 q -8 99 -8 21 l -8 99 q 11 204 -8 155 q 61 284 30 253 q 127 314 92 314 l 127 314 q 139 308 139 314 l 139 308 q 126 298 139 302 l 126 298 q 78 268 101 292 q 39 203 54 243 q 24 108 24 163 l 24 108 q 49 0 24 42 q 112 -66 73 -42 q 195 -99 151 -90 q 277 -109 238 -109 l 277 -109 q 479 -74 387 -109 q 644 21 570 -40 q 772 162 717 82 q 862 332 826 241 l 862 332 q 864 338 863 335 l 864 338 q 837 335 848 337 q 816 329 826 333 l 816 329 q 783 321 794 321 l 783 321 q 777 329 777 321 l 777 329 q 792 359 777 343 q 827 375 806 374 l 827 375 q 850 376 835 375 q 880 376 864 376 l 880 376 q 921 475 899 424 q 964 572 943 526 q 1001 652 985 618 q 1024 700 1017 686 l 1024 700 q 910 690 969 694 q 794 676 851 685 q 686 645 737 666 l 686 645 q 550 543 592 606 q 507 401 507 479 l 507 401 q 534 320 507 352 q 605 288 561 288 l 605 288 q 675 313 645 288 q 723 375 705 337 q 740 449 740 412 l 740 449 q 738 471 740 461 q 733 484 735 480 l 733 484 q 739 491 733 491 l 739 491 q 757 473 752 491 q 761 436 761 454 l 761 436 q 740 357 761 396 q 681 293 718 318 q 596 267 643 267 l 596 267 q 520 289 554 267 q 464 347 485 310 q 443 429 443 384 l 443 429 q 472 543 443 493 q 552 627 501 592 q 665 680 602 662 l 665 680 q 792 705 726 698 q 921 716 857 712 q 1037 724 984 719 l 1037 724 q 1063 761 1047 742 q 1097 794 1078 780 q 1136 807 1116 807 l 1136 807 q 1162 800 1151 807 q 1173 776 1173 792 l 1173 776 q 1155 737 1173 752 q 1108 713 1136 721 q 1053 701 1080 705 l 1053 701 q 1027 642 1042 680 q 995 558 1012 604 q 960 464 977 511 q 927 375 942 416 l 927 375 q 1007 371 961 373 q 1100 366 1052 368 q 1192 361 1148 363 q 1263 359 1235 359 l 1263 359 q 1286 417 1274 387 l 1286 417 q 1400 655 1348 568 q 1483 752 1452 742 l 1483 752 q 1538 765 1523 765 l 1538 765 q 1544 763 1544 765 l 1544 763 q 1530 753 1544 760 l 1530 753 q 1502 718 1523 749 q 1450 634 1480 687 q 1387 510 1420 580 q 1324 358 1354 440 l 1324 358 q 1359 359 1341 358 q 1385 361 1376 360 l 1385 361 q 1404 366 1396 363 q 1415 369 1411 369 l 1415 369 q 1420 364 1420 369 l 1420 364 q 1412 354 1420 361 l 1412 354 q 1371 333 1395 342 q 1311 322 1347 324 l 1311 322 q 1268 187 1288 256 q 1248 58 1248 117 l 1248 58 q 1256 16 1248 36 q 1286 -4 1264 -4 l 1286 -4 q 1343 25 1312 -4 q 1404 98 1374 53 q 1454 193 1434 143 l 1454 193 q 1466 184 1466 193 l 1466 184 q 1410 77 1442 129 q 1339 -8 1377 25 q 1258 -42 1300 -42 l 1258 -42 q 1205 -18 1225 -42 q 1184 53 1184 6 l 1184 53 q 1203 170 1184 99 q 1250 322 1221 241 l 1250 322 q 1176 325 1220 323 q 1083 330 1132 327 q 989 334 1034 332 q 914 337 944 336 l 914 337 q 906 314 910 325 q 899 294 902 303 l 899 294 q 816 123 869 206 q 688 -27 762 40 q 518 -133 613 -94 q 308 -173 422 -173 z m 1072 726 l 1072 726 q 1090 730 1082 728 q 1104 734 1097 732 l 1104 734 q 1130 748 1122 740 q 1137 762 1137 756 l 1137 762 q 1123 774 1137 774 l 1123 774 q 1106 768 1116 774 q 1086 748 1096 762 l 1086 748 q 1079 737 1082 742 q 1072 726 1075 731 z"},"I":{"ha":917,"x_min":-19,"x_max":1202,"o":"m 336 -194 l 336 -194 q 201 -173 265 -194 q 88 -116 137 -153 q 10 -32 38 -80 q -19 71 -19 16 l -19 71 q -3 171 -19 128 q 34 241 12 213 q 77 284 56 269 l 77 284 q 120 308 101 301 q 143 314 139 314 l 143 314 q 149 309 149 314 l 149 309 q 144 301 149 304 l 144 301 q 65 214 92 270 q 37 94 37 157 l 37 94 q 55 1 37 46 q 109 -82 72 -45 q 206 -142 146 -120 q 351 -164 266 -164 l 351 -164 q 473 -137 414 -164 q 583 -67 531 -111 q 680 29 635 -24 q 761 135 725 82 q 822 233 797 188 l 822 233 q 904 402 870 318 q 972 566 938 485 q 1052 724 1005 647 l 1052 724 q 956 705 1006 716 q 858 676 906 693 q 771 632 810 658 q 709 570 732 606 q 686 484 686 533 l 686 484 q 707 421 686 444 q 765 397 728 397 l 765 397 q 812 411 788 397 q 852 451 835 425 q 868 512 868 476 l 868 512 q 865 536 868 527 q 860 548 862 544 l 860 548 q 863 556 860 552 q 869 560 865 560 l 869 560 q 883 543 878 560 q 887 514 887 525 l 887 514 q 872 446 887 478 q 826 394 856 414 q 750 374 795 374 l 750 374 q 667 405 701 374 q 632 488 632 436 l 632 488 q 660 578 632 538 q 734 647 687 617 q 837 697 780 676 q 954 731 894 718 q 1068 751 1014 744 l 1068 751 q 1110 809 1083 782 q 1170 836 1136 836 l 1170 836 q 1193 829 1184 836 q 1202 807 1202 822 l 1202 807 q 1189 775 1202 789 q 1156 752 1176 761 q 1117 737 1136 742 q 1083 729 1097 731 l 1083 729 q 1014 575 1040 650 q 966 428 987 500 q 914 283 944 355 l 914 283 q 816 95 871 182 q 690 -57 760 8 q 531 -158 619 -122 q 336 -194 443 -194 z m 1100 755 l 1100 755 q 1153 773 1139 763 q 1166 791 1166 783 l 1166 791 q 1155 804 1166 804 l 1155 804 q 1127 791 1142 804 q 1100 755 1111 778 z"},"J":{"ha":972,"x_min":-60,"x_max":1277,"o":"m 277 -382 l 277 -382 q 106 -350 182 -382 q -15 -257 29 -318 q -60 -110 -60 -196 l -60 -110 q -29 22 -60 -30 q 39 99 2 73 l 39 99 q 78 121 60 114 q 102 127 96 127 l 102 127 q 108 122 108 127 l 108 122 q 103 114 108 117 l 103 114 q 24 26 51 83 q -4 -99 -4 -31 l -4 -99 q 32 -234 -4 -177 q 132 -323 68 -292 q 280 -354 196 -354 l 280 -354 q 551 -242 422 -354 q 800 70 680 -130 l 800 70 q 885 229 845 147 q 961 391 925 311 l 961 391 q 1030 532 997 469 q 1087 637 1062 594 q 1122 697 1111 680 l 1122 697 q 731 589 869 663 q 592 399 592 515 l 592 399 q 623 310 592 339 q 694 280 654 280 l 694 280 q 773 305 733 280 q 839 375 812 330 q 865 478 865 419 l 865 478 q 847 525 865 507 l 847 525 q 857 535 847 535 l 857 535 q 879 517 869 535 q 888 472 888 499 l 888 472 q 857 357 888 405 q 777 282 825 308 q 677 256 728 256 l 677 256 q 603 273 638 256 q 546 325 568 290 q 523 412 523 360 l 523 412 q 569 531 523 480 q 697 617 614 581 q 892 679 779 653 q 1139 724 1004 705 l 1139 724 q 1191 785 1167 763 q 1242 807 1214 807 l 1242 807 q 1268 799 1258 807 q 1277 775 1277 791 l 1277 775 q 1258 738 1277 752 q 1210 715 1239 723 q 1152 701 1181 706 l 1152 701 q 1088 570 1115 637 q 1037 432 1060 502 q 987 288 1013 361 q 924 137 960 214 l 924 137 q 751 -138 849 -22 q 534 -318 653 -255 q 277 -382 415 -382 z m 1170 726 l 1170 726 q 1225 744 1211 733 q 1239 763 1239 754 l 1239 763 q 1227 775 1239 775 l 1227 775 q 1201 759 1216 775 q 1170 726 1185 742 z"},"K":{"ha":1203,"x_min":26,"x_max":1669,"o":"m 1230 -185 l 1230 -185 q 1095 -141 1160 -185 q 983 3 1029 -98 l 983 3 q 951 94 963 48 q 932 180 938 140 q 926 246 926 220 l 926 246 q 933 282 926 278 l 933 282 q 997 298 952 280 q 1103 351 1041 316 q 1236 436 1164 386 q 1380 547 1307 485 q 1519 681 1452 609 q 1637 832 1586 753 l 1637 832 q 1648 848 1644 843 q 1656 853 1652 853 l 1656 853 q 1665 849 1661 853 q 1669 839 1669 844 l 1669 839 q 1662 820 1669 831 l 1662 820 q 1549 664 1614 740 q 1409 520 1483 587 q 1260 399 1335 453 q 1117 309 1185 345 q 997 260 1049 273 l 997 260 q 994 250 994 262 l 994 250 q 1001 196 994 233 q 1023 111 1008 158 q 1058 14 1037 63 l 1058 14 q 1148 -108 1096 -75 q 1254 -142 1199 -142 l 1254 -142 q 1326 -128 1289 -142 q 1394 -89 1363 -114 q 1442 -32 1425 -65 l 1442 -32 q 1451 -22 1448 -22 l 1451 -22 q 1458 -30 1458 -22 l 1458 -30 q 1457 -36 1458 -33 q 1450 -51 1455 -40 l 1450 -51 q 1404 -110 1436 -79 q 1327 -163 1371 -142 q 1230 -185 1282 -185 z m 381 -172 l 381 -172 q 250 -153 313 -172 q 136 -99 186 -135 q 56 -11 85 -63 q 26 107 26 41 l 26 107 q 41 193 26 155 q 77 255 55 230 q 120 293 98 280 q 155 306 141 306 l 155 306 q 165 300 165 306 l 165 300 q 160 292 165 295 l 160 292 q 113 257 137 280 q 73 197 89 234 q 57 105 57 160 l 57 105 q 83 3 57 45 q 150 -67 108 -40 q 239 -106 191 -94 q 331 -119 287 -119 l 331 -119 q 514 -81 429 -119 q 670 21 599 -43 q 794 162 740 84 q 883 320 848 240 l 883 320 q 914 390 896 349 q 953 476 932 430 q 994 566 974 522 q 1031 646 1014 610 q 1057 700 1047 681 l 1057 700 q 913 686 990 692 q 765 659 835 679 l 765 659 q 638 595 687 637 q 565 504 588 553 q 541 412 541 455 l 541 412 q 567 327 541 360 q 642 293 593 293 l 642 293 q 708 315 679 293 q 754 371 737 336 q 771 444 771 405 l 771 444 q 768 471 771 460 q 765 488 765 482 l 765 488 q 770 495 765 495 l 770 495 q 783 483 777 495 l 783 483 q 793 438 793 460 l 793 438 q 770 354 793 391 q 711 294 747 316 q 635 272 675 272 l 635 272 q 554 295 588 272 q 500 354 519 317 q 481 434 481 391 l 481 434 q 508 534 481 483 q 595 626 535 584 q 753 689 655 667 l 753 689 q 920 713 835 707 q 1070 724 1005 718 l 1070 724 q 1127 793 1105 778 q 1167 807 1149 807 l 1167 807 q 1196 797 1185 807 q 1206 773 1206 787 l 1206 773 q 1179 731 1206 753 q 1086 701 1151 708 l 1086 701 q 1027 570 1054 642 q 973 418 1000 497 q 914 261 946 339 l 914 261 q 786 34 860 131 q 612 -118 712 -64 q 381 -172 512 -172 z m 1105 726 l 1105 726 q 1153 741 1130 728 q 1176 768 1176 753 l 1176 768 q 1166 778 1176 778 l 1166 778 q 1141 767 1157 778 q 1105 726 1125 755 z"},"L":{"ha":716,"x_min":-3,"x_max":925,"o":"m 799 -311 l 799 -311 q 786 -307 789 -311 q 783 -300 783 -304 l 783 -300 q 818 -273 801 -297 q 835 -219 835 -250 l 835 -219 q 803 -124 835 -170 q 713 -41 771 -79 q 578 25 655 -3 q 408 65 500 52 l 408 65 q 332 -23 374 17 q 238 -88 289 -64 q 126 -113 186 -113 l 126 -113 q 30 -84 63 -113 q -3 -17 -3 -55 l -3 -17 q 26 54 -3 18 q 113 113 54 89 q 261 136 171 136 l 261 136 q 401 124 330 136 l 401 124 q 446 212 426 168 q 481 295 466 256 l 481 295 q 325 326 382 299 q 244 392 268 352 q 220 474 220 432 l 220 474 q 252 575 220 527 q 339 652 284 622 q 462 682 394 682 l 462 682 q 472 676 470 682 q 474 666 474 670 l 474 666 q 401 649 436 666 q 337 604 365 632 q 293 540 309 575 q 276 468 276 505 l 276 468 q 295 398 276 432 q 360 340 314 363 q 489 315 406 317 l 489 315 q 505 358 498 338 q 516 391 511 377 l 516 391 q 568 534 540 463 q 631 663 595 605 q 715 756 666 721 q 832 791 764 791 l 832 791 q 901 766 876 791 q 925 697 925 741 l 925 697 q 905 603 925 654 q 849 500 885 551 q 764 405 813 449 q 657 332 715 361 q 535 296 599 303 l 535 296 q 497 216 520 264 q 442 116 474 167 l 442 116 q 607 62 529 96 q 744 -15 684 28 q 837 -108 803 -59 q 871 -207 871 -158 l 871 -207 q 849 -281 871 -251 q 799 -311 827 -311 z m 832 740 l 832 740 q 751 703 789 740 q 679 604 713 665 q 611 467 644 542 q 545 318 578 392 l 545 318 q 655 354 604 326 q 748 423 706 382 q 820 509 790 463 q 866 600 850 555 q 882 679 882 644 l 882 679 q 870 724 882 707 q 832 740 858 740 z m 22 -31 l 22 -31 q 49 -74 22 -56 q 126 -93 76 -93 l 126 -93 q 260 -45 200 -93 q 367 70 320 2 l 367 70 q 261 75 314 75 l 261 75 q 126 59 179 75 q 48 18 73 42 q 22 -31 22 -7 z"},"M":{"ha":1336,"x_min":18,"x_max":1461,"o":"m 1365 -115 l 1365 -115 q 1324 -107 1350 -113 q 1271 -86 1298 -102 q 1225 -37 1244 -70 q 1206 49 1206 -5 l 1206 49 q 1232 186 1206 111 q 1294 341 1257 260 q 1365 501 1331 422 l 1365 501 q 1392 597 1392 564 l 1392 597 q 1367 630 1392 630 l 1367 630 q 1284 586 1339 630 q 1155 451 1228 541 l 1155 451 q 1106 385 1136 427 q 1042 291 1076 342 q 976 187 1008 239 q 919 90 943 134 q 883 20 894 46 l 883 20 q 853 -22 870 -11 q 821 -34 836 -34 l 821 -34 q 799 -27 808 -34 l 799 -27 q 789 -10 789 -20 l 789 -10 q 792 0 789 -4 l 792 0 q 822 55 798 12 q 878 169 846 98 q 939 334 910 240 l 939 334 q 958 401 948 363 q 975 480 967 439 q 989 556 983 520 q 994 613 994 591 l 994 613 q 982 665 994 648 q 950 681 970 681 l 950 681 q 900 662 928 681 q 843 607 872 643 l 843 607 q 755 491 793 544 q 686 384 717 437 q 624 271 654 331 q 559 137 593 211 q 481 -36 525 62 l 481 -36 q 458 -59 474 -52 q 427 -66 441 -66 l 427 -66 q 404 -60 413 -66 q 398 -43 395 -54 l 398 -43 q 447 45 420 -8 q 502 161 474 97 q 556 294 530 225 q 603 429 582 363 q 635 553 623 495 q 647 652 647 611 l 647 652 q 615 762 647 729 q 531 795 582 795 l 531 795 q 432 773 486 795 q 324 713 378 751 q 221 627 269 675 l 221 627 q 113 477 152 558 q 73 313 73 396 l 73 313 q 94 218 73 257 q 150 159 115 179 q 226 139 184 139 l 226 139 q 307 161 269 139 q 373 217 344 182 q 417 290 401 251 q 433 362 433 328 l 433 362 q 417 410 433 391 q 366 429 401 429 l 366 429 q 358 429 362 429 q 348 428 353 428 l 348 428 l 345 428 q 332 431 338 428 q 326 437 326 433 l 326 437 q 337 446 326 441 q 375 451 347 451 l 375 451 q 443 425 420 451 q 465 357 465 398 l 465 357 q 445 275 465 317 q 389 197 424 233 q 311 139 354 161 q 221 117 267 117 l 221 117 q 121 142 167 117 q 46 215 74 167 q 18 328 18 262 l 18 328 q 44 453 18 391 q 112 569 70 514 q 200 665 153 623 l 200 665 q 310 746 252 712 q 426 798 368 779 q 533 816 483 816 l 533 816 q 656 772 607 816 q 704 630 704 728 l 704 630 q 693 539 704 590 q 667 436 682 487 q 638 344 652 384 l 638 344 l 640 344 q 705 456 676 409 q 762 542 733 502 q 827 626 791 582 l 827 626 q 898 685 858 663 q 975 707 938 707 l 975 707 q 1031 685 1008 707 q 1054 610 1054 663 l 1054 610 q 1054 600 1054 604 q 1053 588 1054 596 l 1053 588 q 1015 400 1044 492 q 955 213 986 307 l 955 213 q 1039 335 986 261 q 1155 488 1092 409 l 1155 488 q 1298 632 1232 584 q 1407 680 1364 680 l 1407 680 q 1461 614 1461 680 l 1461 614 q 1452 554 1461 589 q 1422 480 1442 519 l 1422 480 q 1374 379 1400 436 q 1323 258 1347 321 q 1284 135 1299 195 q 1268 23 1268 74 l 1268 23 q 1294 -65 1268 -32 q 1382 -99 1319 -99 l 1382 -99 l 1388 -99 q 1403 -105 1403 -99 l 1403 -105 q 1393 -113 1403 -109 q 1365 -115 1383 -117 z"},"N":{"ha":1044,"x_min":-3,"x_max":1194,"o":"m 1001 -147 l 1001 -147 q 891 -107 926 -144 q 855 -9 855 -71 l 855 -9 q 875 91 855 32 q 925 217 894 149 q 991 353 956 284 q 1056 484 1025 421 q 1107 597 1087 547 q 1126 675 1126 647 l 1126 675 q 1108 709 1126 698 q 1070 719 1090 719 l 1070 719 q 996 700 1036 719 q 914 649 955 680 q 835 581 872 617 q 769 510 797 544 l 769 510 q 672 375 718 448 q 587 227 626 302 q 516 83 548 151 q 458 -36 483 15 l 458 -36 q 435 -57 451 -50 q 403 -65 418 -65 l 403 -65 q 381 -59 390 -65 q 375 -43 372 -54 l 375 -43 q 424 40 396 -12 q 482 155 452 91 q 540 289 511 219 q 591 425 568 358 q 627 547 613 491 q 640 641 640 603 l 640 641 q 607 741 640 711 q 521 770 574 770 l 521 770 q 405 745 468 770 q 281 674 342 719 q 169 568 220 628 q 88 437 118 507 q 57 292 57 366 l 57 292 q 89 184 57 227 q 182 141 120 141 l 182 141 q 280 163 235 141 q 357 220 324 185 q 407 293 389 255 q 425 363 425 331 l 425 363 q 410 411 425 392 q 362 430 394 430 l 362 430 q 346 429 352 430 q 335 428 340 428 l 335 428 q 328 435 328 428 l 328 435 q 332 441 328 439 q 338 444 336 443 l 338 444 q 362 449 351 448 q 383 450 373 450 l 383 450 q 444 428 424 450 q 463 372 463 406 l 463 372 q 443 293 463 336 q 385 211 422 249 q 295 147 347 172 q 180 122 243 122 l 180 122 q 90 146 132 122 q 23 213 48 169 q -3 319 -3 257 l -3 319 q 25 450 -3 383 q 104 578 53 516 q 223 689 155 640 q 369 767 290 738 q 533 795 448 795 l 533 795 q 615 780 578 795 q 675 729 652 764 q 697 635 697 694 l 697 635 q 689 572 697 608 q 667 495 680 535 q 639 418 653 455 q 611 351 624 380 q 590 308 597 322 l 590 308 q 635 378 608 338 q 692 458 662 417 q 749 531 722 498 l 749 531 q 820 610 781 569 q 904 687 859 651 q 997 744 948 722 q 1095 766 1045 766 l 1095 766 q 1165 746 1135 766 q 1194 671 1194 725 l 1194 671 q 1174 576 1194 628 q 1121 463 1153 523 q 1054 340 1089 403 q 986 213 1018 277 q 934 86 954 148 q 913 -33 913 24 l 913 -33 q 929 -97 913 -74 q 975 -121 945 -121 l 975 -121 q 1024 -108 997 -121 l 1024 -108 q 1041 -101 1033 -103 q 1052 -100 1048 -100 l 1052 -100 q 1067 -111 1067 -100 l 1067 -111 q 1049 -135 1067 -122 q 1001 -147 1031 -148 z"},"O":{"ha":730,"x_min":50,"x_max":912,"o":"m 316 -61 l 316 -61 q 157 2 214 -61 q 99 181 99 65 l 99 181 q 129 332 99 254 l 129 332 q 69 398 87 361 q 50 486 50 434 l 50 486 q 82 609 50 555 q 166 702 113 663 q 285 760 219 740 q 419 780 351 780 l 419 780 q 549 760 486 780 q 662 697 612 739 q 739 589 711 654 q 762 434 766 524 l 762 434 q 844 498 809 463 q 894 561 878 532 l 894 561 q 904 570 899 570 l 904 570 q 911 562 909 570 q 905 543 912 554 l 905 543 q 844 466 880 504 q 758 398 807 428 l 758 398 q 752 349 757 376 q 736 291 746 321 l 736 291 q 676 168 717 230 q 577 54 634 106 q 453 -29 520 2 q 316 -61 386 -61 z m 349 310 l 349 310 q 527 335 433 310 q 702 402 620 359 l 702 402 q 704 428 704 415 q 704 452 704 440 l 704 452 q 669 622 704 554 q 570 724 633 690 q 423 758 507 758 l 423 758 q 301 738 358 758 q 199 682 243 718 q 129 597 154 646 q 104 489 104 548 l 104 489 q 112 431 104 462 q 147 374 119 399 l 147 374 q 185 442 161 404 q 241 518 209 479 q 309 588 272 556 q 385 640 345 620 q 464 659 424 659 l 464 659 q 499 655 481 659 q 532 641 516 651 l 532 641 q 540 632 540 636 l 540 632 q 536 627 540 629 q 524 627 531 625 l 524 627 q 495 631 511 631 l 495 631 q 422 610 459 631 q 350 554 385 588 q 285 480 315 519 q 233 403 255 440 q 198 339 210 365 l 198 339 q 349 310 259 310 z m 324 -37 l 324 -37 q 434 -9 380 -37 q 535 67 487 19 q 619 174 582 115 q 678 295 656 233 l 678 295 q 689 331 684 312 q 695 366 694 349 l 695 366 q 522 300 614 323 q 346 277 430 277 l 346 277 q 184 304 253 277 l 184 304 q 153 149 153 225 l 153 149 q 202 10 153 56 q 324 -37 250 -37 z"},"P":{"ha":925,"x_min":4,"x_max":1105,"o":"m 169 -39 l 169 -39 q 126 -36 147 -39 l 126 -36 q 34 1 63 -28 q 4 64 4 30 l 4 64 q 38 131 4 101 q 132 161 71 161 l 132 161 q 173 158 151 161 q 218 146 194 154 l 218 146 q 230 135 230 142 l 230 135 q 224 131 230 131 l 224 131 q 214 133 218 131 l 214 133 q 184 142 198 139 q 156 144 169 144 l 156 144 q 91 120 113 144 q 68 66 68 95 l 68 66 q 91 15 68 38 q 164 -8 114 -8 l 164 -8 q 281 21 227 -8 q 382 97 334 50 l 382 97 q 475 218 433 147 q 559 369 517 288 q 649 531 600 449 q 762 685 698 613 l 762 685 q 789 715 775 699 q 815 741 802 730 l 815 741 q 745 749 781 746 q 674 751 709 751 l 674 751 q 576 747 622 751 q 483 734 529 742 l 483 734 q 378 706 436 725 q 266 657 320 687 q 173 583 211 626 q 125 484 134 540 l 125 484 q 124 474 124 479 q 123 463 123 468 l 123 463 q 155 387 123 417 q 228 357 186 357 l 228 357 q 288 374 259 357 q 340 418 317 390 q 374 478 363 445 l 374 478 q 382 488 375 488 l 382 488 q 388 477 388 488 l 388 477 q 363 401 387 433 q 301 353 338 369 q 226 336 264 336 l 226 336 q 152 353 187 336 q 95 402 117 369 q 73 482 73 434 l 73 482 q 101 581 73 538 q 174 657 128 624 q 274 712 220 689 q 382 748 328 734 q 480 768 436 761 l 480 768 q 574 779 525 775 q 672 783 622 783 l 672 783 q 758 779 715 783 q 842 767 801 775 l 842 767 q 877 790 859 780 q 917 808 895 800 l 917 808 q 938 814 931 814 l 938 814 q 944 810 944 814 l 944 810 q 928 793 944 803 l 928 793 q 908 779 920 789 q 882 756 896 769 l 882 756 q 999 708 947 740 l 999 708 q 1081 636 1056 674 q 1105 558 1105 598 l 1105 558 q 1077 467 1105 512 q 1004 382 1049 421 q 905 315 959 343 q 798 273 851 286 l 798 273 q 695 254 747 260 q 602 248 643 248 l 602 248 q 588 248 595 248 q 573 249 580 248 l 573 249 q 503 156 539 201 q 422 67 467 110 l 422 67 q 302 -12 367 15 q 169 -39 237 -39 z m 587 271 l 587 271 q 672 277 625 270 q 766 298 719 284 l 766 298 q 907 367 844 322 q 1006 467 969 412 q 1042 575 1042 522 l 1042 575 q 1027 636 1042 607 q 976 688 1011 665 l 976 688 q 924 714 953 703 q 863 732 895 725 l 863 732 q 768 582 812 660 q 680 425 723 504 q 587 271 636 346 z"},"Q":{"ha":756,"x_min":29,"x_max":843,"o":"m 316 -63 l 316 -63 q 201 -32 254 -63 q 119 68 147 -2 l 119 68 q 102 129 107 97 q 96 191 96 160 l 96 191 q 118 326 96 258 q 177 453 139 393 q 261 560 214 513 q 359 633 307 606 q 459 660 410 660 l 459 660 q 532 641 498 660 l 532 641 q 540 632 540 636 l 540 632 q 535 627 540 629 q 524 627 530 625 l 524 627 q 494 631 512 631 l 494 631 q 404 602 451 631 q 313 524 357 573 q 232 412 268 474 q 175 284 196 350 q 153 154 153 217 l 153 154 q 162 81 153 116 l 162 81 q 222 -14 181 15 q 314 -43 262 -43 l 314 -43 q 409 -23 359 -43 q 505 32 459 -3 l 505 32 q 626 154 578 87 q 697 292 673 220 q 720 432 720 363 l 720 432 q 699 558 720 498 q 635 663 677 617 q 530 736 592 709 q 386 762 467 762 l 386 762 q 353 761 370 762 q 318 757 336 759 l 318 757 q 171 684 221 744 q 121 535 121 624 l 121 535 q 124 496 121 516 q 131 454 126 475 l 131 454 q 132 445 132 451 l 132 445 q 124 433 132 433 l 124 433 q 107 449 116 433 l 107 449 q 90 497 95 473 q 84 544 84 521 l 84 544 q 114 652 84 602 q 196 735 144 701 q 314 780 248 769 l 314 780 q 376 788 346 785 q 432 791 405 791 l 432 791 q 627 748 551 791 q 738 631 702 704 q 774 471 774 558 l 774 471 q 742 296 774 385 q 650 130 709 207 q 509 -2 590 52 l 509 -2 q 414 -47 465 -31 q 316 -63 363 -63 z m 669 -371 l 669 -371 q 516 -351 581 -371 q 402 -299 450 -331 q 316 -231 353 -267 q 245 -164 278 -196 q 179 -112 212 -132 q 104 -92 145 -92 l 104 -92 q 81 -97 94 -92 q 57 -112 67 -102 q 46 -139 46 -122 l 46 -139 q 43 -148 46 -146 q 38 -151 40 -151 l 38 -151 q 29 -136 29 -151 l 29 -136 q 53 -83 29 -105 q 111 -62 77 -62 l 111 -62 q 210 -85 165 -62 q 298 -143 254 -108 q 393 -217 341 -179 l 393 -217 q 496 -280 440 -251 q 609 -328 551 -310 q 717 -346 666 -346 l 717 -346 q 764 -340 742 -346 q 801 -318 786 -334 q 815 -274 815 -302 l 815 -274 q 796 -214 815 -245 q 739 -160 776 -184 q 650 -129 702 -137 l 650 -129 q 638 -123 642 -127 q 634 -115 634 -119 l 634 -115 q 647 -108 634 -107 l 647 -108 q 754 -143 710 -118 q 820 -201 797 -169 q 843 -266 843 -234 l 843 -266 q 801 -339 843 -308 q 669 -371 759 -371 z"},"R":{"ha":1028,"x_min":19,"x_max":1117,"o":"m 894 -42 l 894 -42 q 839 -29 866 -42 q 787 9 811 -16 l 787 9 q 727 96 752 45 q 683 200 701 146 q 655 298 665 253 q 641 366 645 342 l 641 366 q 565 226 604 295 q 464 89 525 156 l 464 89 q 337 -6 406 26 q 194 -39 268 -39 l 194 -39 q 147 -36 171 -39 l 147 -36 q 50 2 81 -28 q 19 66 19 32 l 19 66 q 52 133 19 103 q 146 163 85 163 l 146 163 q 189 159 166 163 q 237 146 212 155 l 237 146 q 248 137 248 142 l 248 137 q 240 133 248 133 l 240 133 q 232 134 235 133 l 232 134 q 173 146 199 146 l 173 146 q 109 122 131 146 q 87 68 87 97 l 87 68 q 111 16 87 40 q 185 -8 135 -8 l 185 -8 q 301 22 248 -8 q 400 103 354 51 q 488 220 446 154 q 570 356 530 285 l 570 356 q 692 573 637 475 q 807 738 746 670 l 807 738 q 752 742 780 741 q 695 743 724 743 l 695 743 q 565 737 632 743 q 434 716 497 730 l 434 716 q 288 663 349 698 q 192 584 227 627 q 147 496 156 540 l 147 496 q 144 465 144 480 l 144 465 q 178 386 144 414 q 256 358 212 358 l 256 358 q 313 370 284 358 q 364 406 341 381 l 364 406 q 392 444 383 426 q 402 470 401 461 l 402 470 q 408 484 403 484 l 408 484 q 414 479 411 484 q 415 469 416 474 l 415 469 q 401 424 411 446 q 377 387 391 402 l 377 387 q 313 344 349 358 q 244 330 277 330 l 244 330 q 171 347 205 330 q 115 397 136 364 q 94 477 94 429 l 94 477 q 133 592 94 533 q 251 695 172 650 q 446 757 329 740 l 446 757 q 561 770 505 765 q 668 774 616 774 l 668 774 q 750 771 710 774 q 829 763 790 768 l 829 763 q 864 790 855 790 l 864 790 q 871 779 871 790 l 871 779 q 870 769 871 775 q 867 757 869 763 l 867 757 q 920 749 894 753 q 965 738 945 744 l 965 738 q 1081 681 1044 716 q 1117 604 1117 645 l 1117 604 q 1078 516 1117 560 q 967 438 1038 472 q 799 388 895 404 l 799 388 q 745 381 768 383 q 704 378 721 379 l 704 378 q 713 336 706 368 q 733 261 720 304 q 767 169 746 217 q 816 78 787 121 l 816 78 q 863 22 839 44 q 914 0 887 0 l 914 0 q 950 9 931 0 q 988 38 968 18 l 988 38 q 1032 92 1012 62 q 1066 150 1052 122 q 1087 193 1080 177 l 1087 193 q 1096 192 1093 193 q 1099 184 1099 191 l 1099 184 q 1085 153 1095 174 q 1062 105 1075 131 q 1032 52 1048 78 q 1000 8 1016 26 l 1000 8 q 949 -29 977 -17 q 894 -42 920 -42 z m 662 405 l 662 405 q 724 412 691 410 q 789 418 757 414 l 789 418 q 887 446 841 425 q 969 495 933 466 q 1024 557 1004 524 q 1044 619 1044 589 l 1044 619 q 953 713 1044 687 l 953 713 q 907 723 935 718 q 855 732 878 728 l 855 732 q 757 571 807 650 q 662 405 706 492 z"},"S":{"ha":926,"x_min":45,"x_max":991,"o":"m 413 -92 l 413 -92 q 234 -63 315 -92 q 102 23 152 -34 q 47 162 52 79 l 47 162 q 58 237 45 196 q 95 319 71 278 q 151 392 118 359 q 220 441 183 424 l 220 441 q 230 444 223 443 q 239 445 236 445 l 239 445 q 245 442 245 445 l 245 442 q 230 426 245 437 l 230 426 q 161 350 188 393 l 161 350 q 119 258 133 307 q 105 159 105 209 l 105 159 q 131 58 105 100 q 199 -12 156 15 q 297 -53 242 -40 q 412 -66 352 -66 l 412 -66 q 545 -51 479 -66 q 664 -8 610 -36 l 664 -8 q 796 101 747 36 q 844 230 844 166 l 844 230 q 830 295 844 264 q 783 351 815 326 l 783 351 q 725 387 759 370 q 652 420 690 404 q 576 453 613 436 q 511 488 539 469 l 511 488 q 453 546 471 515 q 434 608 434 577 l 434 608 q 456 680 434 645 q 515 744 477 715 q 599 788 552 772 l 599 788 q 689 810 640 802 q 784 818 737 818 l 784 818 q 859 813 823 818 q 921 793 894 807 l 921 793 q 973 751 955 777 q 991 695 991 724 l 991 695 q 955 625 991 655 l 955 625 q 926 607 942 615 q 888 592 910 598 l 888 592 q 879 591 884 591 l 879 591 q 867 598 867 591 l 867 598 q 874 607 867 602 q 893 612 880 611 l 893 612 q 939 635 923 616 q 954 679 954 654 l 954 679 q 937 731 954 705 q 883 774 919 756 q 791 791 847 791 l 791 791 q 721 784 759 791 q 637 761 682 777 l 637 761 q 546 705 582 742 q 509 626 509 668 l 509 626 q 527 574 509 600 q 583 523 544 547 l 583 523 q 658 484 616 503 q 743 445 700 464 q 821 403 786 425 l 821 403 q 900 330 876 369 q 924 250 924 291 l 924 250 q 896 154 924 202 q 821 63 867 105 q 720 -13 775 20 l 720 -13 q 576 -71 656 -51 q 413 -92 495 -92 z"},"T":{"ha":933,"x_min":26,"x_max":1417,"o":"m 388 -70 l 388 -70 q 569 -27 487 -70 q 718 89 651 15 q 834 253 784 162 l 834 253 q 894 371 866 311 q 946 485 922 431 q 989 577 970 538 q 1021 633 1008 616 l 1021 633 q 895 669 966 653 q 716 690 823 684 l 716 690 q 583 673 641 694 q 484 617 524 652 q 422 539 443 581 q 400 458 400 497 l 400 458 q 417 398 400 421 q 462 363 434 374 q 518 352 489 352 l 518 352 q 581 367 554 352 q 627 404 608 382 q 655 445 645 425 q 664 473 664 464 l 664 473 l 664 474 q 674 480 669 480 l 674 480 q 684 466 684 480 l 684 466 q 654 391 679 423 q 592 342 628 359 q 516 325 556 325 l 516 325 q 437 345 475 325 q 375 403 399 365 q 351 495 351 441 l 351 495 q 371 583 351 539 q 430 663 390 626 q 530 721 469 699 q 674 743 591 743 l 674 743 q 809 729 748 743 q 925 695 869 715 q 1037 654 980 674 l 1037 654 q 1075 692 1053 674 q 1118 709 1096 709 l 1118 709 q 1138 697 1138 709 l 1138 697 q 1124 685 1138 685 l 1124 685 q 1093 673 1109 685 q 1065 645 1077 660 l 1065 645 q 1201 606 1136 622 q 1312 589 1265 589 l 1312 589 q 1377 596 1357 589 q 1396 619 1396 603 l 1396 619 q 1399 630 1396 625 q 1408 634 1401 634 l 1408 634 q 1415 626 1413 634 q 1417 612 1417 617 l 1417 612 q 1392 573 1417 588 q 1328 558 1366 558 l 1328 558 q 1249 567 1295 558 q 1150 591 1202 576 q 1049 623 1098 605 l 1049 623 q 987 501 1012 563 q 940 375 961 438 q 894 251 918 312 l 894 251 q 775 53 845 129 q 610 -59 705 -24 q 388 -95 514 -95 l 388 -95 q 192 -61 273 -95 q 69 32 111 -27 q 26 162 26 90 l 26 162 q 47 275 26 224 q 104 360 67 326 q 187 405 140 394 l 187 405 q 194 400 194 405 l 194 400 q 189 392 194 395 l 189 392 q 110 305 137 361 q 82 186 82 248 l 82 186 q 124 47 82 104 q 235 -40 165 -10 q 388 -70 304 -70 z"},"U":{"ha":947,"x_min":-4,"x_max":1010,"o":"m 902 -79 l 902 -79 q 858 -53 874 -74 q 836 -2 842 -33 q 829 61 829 28 l 829 61 q 834 128 829 95 q 843 186 838 161 l 843 186 q 815 143 828 162 q 781 97 801 123 l 781 97 q 675 -5 727 28 q 578 -39 622 -39 l 578 -39 q 510 -8 537 -39 q 483 80 483 22 l 483 80 q 498 174 483 122 q 536 281 513 225 q 584 393 558 337 q 630 499 609 448 q 662 592 651 550 l 662 592 q 675 653 670 623 q 679 710 679 682 l 679 710 q 670 771 679 745 q 641 808 661 796 l 641 808 q 592 828 619 822 q 536 834 565 834 l 536 834 q 422 815 481 834 q 305 763 362 796 l 305 763 q 152 640 211 708 q 66 502 93 572 q 38 368 38 431 l 38 368 q 58 267 38 312 q 115 196 78 222 q 202 170 152 170 l 202 170 q 281 186 240 170 l 281 186 q 341 224 313 198 q 391 283 369 250 q 425 351 412 316 q 437 416 437 386 l 437 416 q 421 467 437 447 q 368 487 405 487 l 368 487 q 351 486 360 487 q 332 483 342 485 l 332 483 q 320 481 325 482 q 311 479 314 479 l 311 479 q 306 482 306 479 l 306 482 q 315 493 306 486 q 328 500 324 499 l 328 500 q 362 511 346 508 q 390 514 377 514 l 390 514 q 448 488 429 514 q 466 422 466 462 l 466 422 q 445 329 466 379 q 383 234 424 278 q 280 164 341 190 l 280 164 q 185 143 231 143 l 185 143 q 86 173 129 143 q 20 253 43 202 q -4 367 -4 304 l -4 367 q 29 515 -4 438 q 130 664 61 591 q 307 796 198 736 l 307 796 q 424 845 367 829 q 530 861 480 861 l 530 861 q 585 856 557 861 q 636 840 612 851 l 636 840 q 711 774 689 818 q 732 677 732 730 l 732 677 q 721 587 732 636 l 721 587 q 690 489 711 541 q 643 382 668 437 q 594 272 617 327 q 555 166 570 217 q 540 71 540 115 l 540 71 q 556 9 540 30 q 596 -13 571 -13 l 596 -13 q 673 21 628 -13 q 766 125 717 55 l 766 125 q 831 232 800 174 q 888 345 861 290 q 935 438 914 399 l 935 438 q 966 479 952 467 q 992 491 979 491 l 992 491 q 1006 481 1002 491 q 1010 461 1010 471 l 1010 461 q 1001 424 1010 445 q 978 381 991 403 q 955 335 965 358 l 955 335 q 927 270 945 314 q 895 173 909 225 l 895 173 q 878 92 885 133 q 870 18 870 51 l 870 18 q 879 -35 870 -15 q 906 -56 887 -56 l 906 -56 l 917 -56 q 936 -64 936 -56 l 936 -64 q 926 -75 936 -70 q 902 -79 916 -81 z"},"V":{"ha":980,"x_min":-4,"x_max":1056,"o":"m 747 659 l 747 659 q 733 566 747 621 q 695 445 718 510 q 645 311 671 379 q 596 180 619 243 q 558 65 572 116 q 543 -18 543 13 l 543 -18 q 574 -65 543 -65 l 574 -65 q 647 -37 604 -65 q 739 37 690 -10 q 834 143 787 83 q 920 266 881 202 q 981 393 958 330 q 1004 507 1004 455 l 1004 507 q 995 570 1004 542 q 955 598 985 598 l 955 598 q 935 604 942 598 q 927 614 927 609 l 927 614 q 944 624 927 624 l 944 624 q 975 616 956 624 q 1012 590 993 607 q 1043 545 1030 572 q 1056 481 1056 518 l 1056 481 q 1032 375 1056 435 q 966 250 1007 314 q 872 124 924 185 q 762 13 819 62 q 651 -66 705 -37 q 550 -96 596 -96 l 550 -96 q 498 -72 511 -96 q 485 -9 485 -48 l 485 -9 q 506 124 485 52 q 557 274 526 196 q 618 428 587 351 q 669 576 648 505 q 689 707 689 647 l 689 707 q 651 799 689 775 q 550 823 612 823 l 550 823 q 421 800 489 823 q 287 735 352 777 q 168 635 221 693 q 84 505 115 576 q 52 351 52 433 l 52 351 q 69 262 52 303 q 122 195 85 220 q 219 169 159 169 l 219 169 q 306 188 264 169 q 379 240 347 207 q 430 312 411 272 q 449 394 449 352 l 449 394 q 435 454 449 428 q 388 479 421 479 l 388 479 q 361 475 375 479 q 342 471 347 471 l 342 471 q 337 477 337 471 l 337 477 q 339 482 337 479 q 346 488 341 485 l 346 488 q 373 498 357 494 q 401 501 389 501 l 401 501 q 469 470 445 501 q 493 395 493 439 l 493 395 q 468 302 493 347 q 402 221 443 257 q 309 164 360 185 q 203 143 257 143 l 203 143 q 90 176 136 143 q 20 263 43 209 q -4 377 -4 316 l -4 377 q 28 528 -4 456 q 114 658 59 599 q 239 759 169 716 q 387 826 309 802 q 541 849 464 849 l 541 849 q 646 830 599 849 q 720 770 692 811 q 747 659 747 728 z"},"W":{"ha":1351,"x_min":-17,"x_max":1388,"o":"m 518 -125 l 518 -125 q 469 -103 488 -125 q 453 -20 449 -81 l 453 -20 q 492 142 457 43 q 583 375 527 241 l 583 375 q 620 471 601 418 q 651 578 638 524 q 664 674 664 631 l 664 674 q 657 727 664 704 q 630 760 649 749 l 630 760 q 583 780 608 774 q 530 786 558 786 l 530 786 q 398 757 467 786 q 264 678 328 728 q 149 563 199 627 q 72 430 98 499 l 72 430 q 50 353 57 389 q 43 288 43 317 l 43 288 q 64 197 43 233 q 118 143 84 160 q 190 125 151 125 l 190 125 q 260 138 227 125 l 260 138 q 337 192 303 154 q 391 277 371 230 q 411 362 411 323 l 411 362 q 394 419 411 396 q 336 442 376 442 l 336 442 q 325 442 330 442 q 312 440 319 442 l 312 440 q 305 439 308 439 q 300 439 302 439 l 300 439 q 291 443 291 439 l 291 443 q 310 456 291 449 l 310 456 q 368 466 341 466 l 368 466 q 438 439 415 466 q 461 369 461 411 l 461 369 q 438 279 461 327 q 371 186 415 230 q 259 114 326 142 l 259 114 q 185 99 223 99 l 185 99 q 87 126 133 99 q 12 203 41 153 q -17 321 -17 253 l -17 321 q -9 390 -17 354 q 16 466 -1 426 l 16 466 q 106 607 49 543 q 234 717 163 670 q 378 788 304 763 q 519 813 452 813 l 519 813 q 626 792 578 813 l 626 792 q 701 727 679 769 q 722 631 722 684 l 722 631 q 703 508 722 573 q 655 379 683 442 l 655 379 q 594 231 624 308 q 542 85 564 154 q 511 -30 520 16 l 511 -30 q 508 -49 509 -41 q 507 -64 507 -58 l 507 -64 q 530 -99 507 -99 l 530 -99 q 563 -87 544 -99 l 563 -87 q 638 -21 600 -65 q 714 80 676 23 q 786 196 751 136 q 853 308 821 255 q 911 398 885 361 l 911 398 q 941 431 927 420 q 965 441 955 441 l 965 441 q 986 409 986 441 l 986 409 q 977 363 986 390 l 977 363 q 942 277 964 325 q 901 179 920 228 q 876 86 882 129 l 876 86 q 875 67 875 75 q 874 49 874 58 l 874 49 q 895 -25 874 -3 q 950 -48 916 -48 l 950 -48 q 1039 -23 989 -48 q 1138 44 1088 2 q 1229 135 1188 85 q 1290 235 1269 185 l 1290 235 q 1325 342 1313 290 q 1337 437 1337 394 l 1337 437 q 1307 550 1337 506 q 1213 593 1277 593 l 1213 593 q 1202 593 1208 593 q 1189 591 1196 592 l 1189 591 q 1154 585 1165 585 l 1154 585 q 1141 591 1141 585 l 1141 591 q 1161 609 1141 599 q 1203 615 1181 619 l 1203 615 q 1294 594 1251 619 q 1362 518 1336 568 q 1388 395 1388 467 l 1388 395 q 1380 315 1388 358 q 1353 225 1372 272 l 1353 225 q 1283 108 1328 162 q 1183 13 1238 54 q 1070 -50 1127 -28 q 962 -73 1012 -73 l 962 -73 q 867 -37 905 -73 q 828 77 828 -2 l 828 77 q 834 144 828 110 q 848 204 840 178 l 848 204 q 803 135 831 176 q 740 48 775 93 q 666 -36 704 3 q 590 -100 628 -76 q 518 -125 552 -125 z"},"X":{"ha":791,"x_min":-122,"x_max":1124,"o":"m -110 -226 l -110 -226 q -122 -213 -122 -226 l -122 -213 q -103 -170 -122 -196 l -103 -170 q 75 40 -24 -60 q 282 230 173 140 q 500 397 390 319 l 500 397 l 500 445 q 497 568 500 519 q 485 649 493 616 l 485 649 q 447 715 475 696 q 382 734 419 734 l 382 734 q 332 727 358 734 q 280 708 306 720 l 280 708 q 199 650 238 689 q 125 576 160 611 l 125 576 q 120 575 124 575 l 120 575 q 108 579 115 575 q 101 590 101 582 l 101 590 q 109 608 101 597 l 109 608 q 134 633 112 613 q 189 677 155 652 q 265 726 223 702 q 351 766 307 750 q 436 782 395 782 l 436 782 q 486 774 462 782 q 528 748 509 766 l 528 748 q 555 689 545 733 q 569 582 565 644 q 572 449 573 519 l 572 449 q 758 577 672 520 q 913 682 844 633 q 1029 777 982 731 l 1029 777 q 1082 819 1058 805 q 1116 833 1106 833 l 1116 833 q 1124 826 1124 833 l 1124 826 q 1115 807 1124 820 q 1084 772 1105 793 l 1084 772 q 972 684 1047 736 q 794 563 896 631 q 574 410 692 495 l 574 410 q 573 341 573 376 q 572 271 572 305 l 572 271 q 575 148 572 204 q 586 60 578 91 l 586 60 q 619 -5 598 15 q 665 -26 640 -26 l 665 -26 q 762 33 712 -26 q 850 193 812 91 l 850 193 q 862 184 862 193 l 862 184 q 782 28 826 89 q 693 -61 738 -33 q 608 -90 647 -90 l 608 -90 q 544 -63 571 -90 q 505 15 516 -36 l 505 15 q 499 67 501 34 q 497 148 497 99 l 497 148 q 499 248 497 194 q 501 358 500 301 l 501 358 q 294 198 395 282 q 106 23 193 114 q -47 -170 18 -69 l -47 -170 q -83 -213 -67 -201 q -110 -226 -99 -226 z"},"Y":{"ha":963,"x_min":20,"x_max":1128,"o":"m 372 -400 l 372 -400 q 259 -374 302 -400 q 215 -311 215 -348 l 215 -311 q 244 -252 215 -284 q 336 -194 272 -220 l 336 -194 q 544 -141 434 -153 q 771 -130 654 -130 l 771 -130 q 827 -15 802 -80 q 871 121 851 50 q 907 259 891 192 l 907 259 q 859 166 889 218 q 790 66 829 114 q 704 -15 751 17 l 704 -15 q 584 -54 646 -54 l 584 -54 q 505 -27 538 -54 q 472 58 472 0 l 472 58 q 473 71 472 64 q 474 85 473 78 l 474 85 q 507 193 482 135 q 563 308 531 251 q 621 409 594 364 l 621 409 q 677 515 653 461 q 714 619 701 569 q 727 707 727 669 l 727 707 q 719 759 727 736 q 691 793 710 781 l 691 793 q 587 821 647 821 l 587 821 q 452 792 523 821 q 314 714 381 763 q 193 601 246 664 q 111 470 140 538 l 111 470 q 85 390 93 427 q 76 322 76 353 l 76 322 q 97 233 76 268 q 152 179 118 197 q 225 161 186 161 l 225 161 q 289 172 257 161 l 289 172 q 355 212 324 184 q 409 275 385 240 q 445 346 432 310 q 458 411 458 382 l 458 411 q 444 459 458 440 q 396 477 429 477 l 396 477 q 370 474 384 477 l 370 474 q 363 473 366 473 q 358 473 360 473 l 358 473 q 349 477 349 473 l 349 477 q 355 484 349 479 q 368 489 361 488 l 368 489 q 417 496 397 496 l 417 496 q 477 473 458 496 q 496 414 496 450 l 496 414 q 471 321 496 372 q 398 223 445 269 q 285 149 351 176 l 285 149 q 211 134 249 134 l 211 134 q 118 160 161 134 q 47 232 74 185 q 20 343 20 279 l 20 343 q 30 420 20 382 q 59 497 40 457 l 59 497 q 157 638 96 574 q 292 748 218 701 q 441 821 365 795 q 584 846 517 846 l 584 846 q 639 842 613 846 q 687 826 665 837 l 687 826 q 762 762 740 803 q 784 669 784 720 l 784 669 q 761 548 784 612 q 702 422 738 483 l 702 422 q 636 303 668 365 q 579 183 603 241 q 545 79 555 125 l 545 79 q 542 59 543 69 q 541 41 541 49 l 541 41 q 558 -10 541 6 q 601 -26 575 -26 l 601 -26 q 690 7 643 -26 l 690 7 q 762 76 727 33 q 826 171 796 119 q 880 275 856 222 q 921 373 904 327 q 947 450 938 419 l 947 450 q 962 471 949 459 q 987 483 975 483 l 987 483 q 1002 475 995 483 q 1008 447 1008 467 l 1008 447 q 999 386 1008 427 l 999 386 q 967 259 986 328 q 923 119 947 190 q 873 -17 899 47 q 819 -129 846 -81 l 819 -129 q 886 -128 847 -129 q 964 -122 924 -127 q 1038 -106 1004 -117 q 1093 -76 1072 -95 q 1114 -28 1114 -57 l 1114 -28 l 1114 -22 q 1117 -13 1114 -13 l 1117 -13 q 1126 -29 1121 -13 l 1126 -29 q 1128 -35 1127 -32 q 1128 -42 1128 -38 l 1128 -42 q 1111 -89 1128 -63 q 1052 -133 1093 -116 l 1052 -133 q 948 -151 1015 -148 q 803 -155 880 -154 l 803 -155 q 678 -286 753 -231 q 525 -370 602 -341 l 525 -370 q 445 -393 483 -386 q 372 -400 406 -400 z m 379 -372 l 379 -372 q 442 -366 408 -372 q 509 -348 476 -360 l 509 -348 q 645 -275 577 -323 q 758 -155 712 -228 l 758 -155 q 620 -161 690 -155 q 483 -185 550 -168 q 356 -238 416 -203 l 356 -238 q 292 -285 311 -263 q 272 -324 272 -307 l 272 -324 q 303 -359 272 -346 q 379 -372 333 -372 z"},"Z":{"ha":681,"x_min":11,"x_max":1082,"o":"m 120 -40 l 120 -40 q 72 -30 97 -40 q 29 2 46 -20 q 11 55 11 23 l 11 55 q 38 117 11 94 q 107 140 64 140 l 107 140 q 197 118 148 140 q 299 60 245 95 l 299 60 q 363 130 329 90 q 432 214 397 170 q 500 299 467 257 q 560 374 532 340 l 560 374 q 723 555 649 482 q 852 673 796 627 l 852 673 q 712 703 791 690 q 532 715 633 715 l 532 715 q 413 696 463 715 q 335 648 362 677 q 307 588 307 619 l 307 588 q 325 545 307 560 q 355 521 342 530 l 355 521 q 367 509 367 514 l 367 509 q 355 502 367 502 l 355 502 q 316 518 334 502 q 285 559 297 534 q 273 609 273 583 l 273 609 q 307 696 273 660 q 396 751 341 732 q 514 769 451 769 l 514 769 q 640 755 577 769 q 762 723 703 741 q 871 688 821 704 l 871 688 q 911 719 888 701 q 963 750 934 736 q 1023 763 991 763 l 1023 763 q 1066 750 1050 763 q 1082 716 1082 736 l 1082 716 q 1056 666 1082 685 q 993 647 1029 647 l 993 647 q 945 652 971 647 q 888 663 918 656 l 888 663 q 829 601 861 639 q 762 517 796 562 q 694 427 727 471 q 631 346 660 382 l 631 346 q 518 220 575 277 q 410 118 461 162 q 322 44 359 74 l 322 44 q 421 -13 365 20 q 537 -79 476 -47 q 659 -133 598 -112 q 771 -155 719 -155 l 771 -155 q 866 -146 820 -155 q 943 -115 911 -138 q 980 -52 974 -93 l 980 -52 q 993 -29 983 -29 l 993 -29 q 1002 -36 998 -29 q 1004 -66 1006 -44 l 1004 -66 q 993 -105 1003 -81 q 959 -153 983 -129 q 890 -195 934 -178 q 776 -212 846 -212 l 776 -212 q 658 -192 715 -212 q 547 -142 600 -173 q 448 -79 494 -112 q 365 -17 402 -46 q 302 26 328 11 l 302 26 q 202 -26 249 -12 q 120 -40 154 -40 z m 995 662 l 995 662 q 1036 673 1018 662 q 1053 709 1053 684 l 1053 709 q 1042 732 1053 723 q 1015 741 1031 741 l 1015 741 q 966 725 993 741 q 903 679 938 708 l 903 679 q 953 667 930 672 q 995 662 976 662 z m 145 -8 l 145 -8 q 218 10 180 -8 q 277 46 255 27 l 277 46 q 267 53 277 46 q 249 64 257 60 l 249 64 q 182 97 212 87 q 132 106 152 106 l 132 106 q 76 89 95 106 q 57 52 57 72 l 57 52 q 79 11 57 30 q 145 -8 101 -8 z"},"a":{"ha":358,"x_min":30,"x_max":429,"o":"m 276 -3 l 276 -3 q 236 10 253 -3 q 218 63 218 23 l 218 63 q 221 95 218 80 q 227 127 223 110 l 227 127 q 202 90 218 112 q 167 47 186 68 q 127 12 147 26 q 88 -2 106 -2 l 88 -2 q 46 22 62 -2 q 30 83 30 45 l 30 83 q 49 171 30 124 q 101 261 68 218 q 177 331 134 304 q 267 358 220 358 l 267 358 q 311 351 290 358 q 348 326 332 343 l 348 326 q 355 310 355 319 l 355 310 q 350 300 355 304 q 337 298 345 296 l 337 298 q 290 333 326 333 l 290 333 q 251 322 273 333 l 251 322 q 194 278 224 308 q 137 209 163 247 q 93 131 110 170 q 76 60 76 92 l 76 60 q 101 27 76 27 l 101 27 q 147 48 123 27 q 192 101 170 69 q 231 163 213 132 q 259 213 249 194 l 259 213 q 287 258 274 240 q 324 276 300 276 l 324 276 q 346 273 335 276 q 369 272 357 270 l 369 272 q 317 201 339 242 q 282 121 294 160 q 270 54 270 81 l 270 54 q 290 24 270 24 l 290 24 q 325 42 306 24 q 361 88 343 60 q 393 144 378 115 q 417 193 408 172 l 417 193 q 426 192 422 193 q 429 184 429 191 l 429 184 q 426 176 428 180 q 418 160 423 171 l 418 160 q 396 117 410 144 q 363 63 382 90 q 322 16 344 35 q 276 -3 300 -3 z"},"b":{"ha":327,"x_min":45,"x_max":387,"o":"m 120 -5 l 120 -5 q 62 20 79 -5 q 45 81 45 45 l 45 81 q 51 128 45 106 q 67 178 56 150 l 67 178 l 65 178 q 57 186 57 178 l 57 186 q 66 209 57 190 q 88 255 74 228 q 116 310 101 282 q 142 360 130 338 l 142 360 q 186 437 162 397 q 234 512 210 476 q 273 571 257 548 l 273 571 q 340 621 309 621 l 340 621 l 345 621 q 366 618 354 621 q 387 617 377 615 l 387 617 q 342 560 372 601 q 275 465 311 518 l 275 465 q 238 406 260 443 q 190 323 215 369 q 144 230 165 277 q 108 138 122 182 q 94 58 94 93 l 94 58 q 102 26 94 35 q 122 17 110 17 l 122 17 q 158 35 137 17 q 200 81 178 52 q 239 144 221 109 q 269 214 257 178 q 280 279 280 249 l 280 279 q 270 321 280 308 q 242 334 259 334 l 242 334 q 228 331 235 334 q 216 327 221 327 l 216 327 q 211 332 211 327 l 211 332 q 222 343 211 337 q 253 349 232 349 l 253 349 q 292 339 272 349 q 324 307 311 329 q 337 248 337 284 l 337 248 q 317 161 337 205 q 265 79 297 116 q 195 18 233 41 q 120 -5 156 -5 z"},"c":{"ha":263,"x_min":37,"x_max":334,"o":"m 145 -4 l 145 -4 q 64 25 90 -4 q 37 103 37 54 l 37 103 q 46 156 37 126 q 70 217 55 186 q 103 272 85 248 l 103 272 q 167 333 132 311 q 238 354 202 354 l 238 354 q 293 338 276 354 q 309 299 309 321 l 309 299 q 299 262 309 278 q 277 235 289 245 q 255 225 264 225 l 255 225 q 241 231 247 225 l 241 231 q 258 255 249 241 q 271 282 267 269 l 271 282 q 275 306 275 294 l 275 306 q 251 332 275 332 l 251 332 q 195 308 222 332 q 145 247 167 284 q 109 168 122 209 q 95 91 95 126 l 95 91 q 109 38 95 59 q 153 17 122 17 l 153 17 q 225 44 194 17 q 280 111 256 70 q 322 193 304 151 l 322 193 q 330 192 326 193 q 334 184 334 190 l 334 184 q 287 91 314 134 q 226 22 260 48 q 145 -4 191 -4 z"},"d":{"ha":372,"x_min":29,"x_max":558,"o":"m 288 0 l 288 0 q 238 23 254 0 q 222 77 222 46 l 222 77 q 223 96 222 86 q 227 115 224 105 l 227 115 q 195 67 213 93 q 153 21 176 40 q 100 1 129 1 l 100 1 q 71 7 87 1 q 42 30 54 13 q 29 80 29 47 l 29 80 q 48 171 29 123 q 100 262 67 219 q 175 331 133 304 q 262 357 217 357 l 262 357 q 330 338 298 357 l 330 338 q 362 401 345 366 q 396 469 379 435 q 426 532 413 503 q 446 575 439 560 l 446 575 q 475 620 461 610 q 507 629 488 629 l 507 629 q 532 627 518 629 q 558 625 545 624 l 558 625 q 535 592 553 620 q 491 520 517 564 q 436 422 465 475 q 378 314 406 369 q 325 207 349 258 q 287 117 301 156 q 273 58 273 78 l 273 58 q 279 36 273 45 q 299 26 285 26 l 299 26 q 338 45 318 26 q 377 93 358 64 q 410 149 395 121 q 431 193 424 176 l 431 193 q 443 184 443 193 l 443 184 q 419 132 434 163 q 384 71 404 101 q 340 21 364 41 q 288 0 315 0 z m 107 30 l 107 30 q 142 46 121 30 q 187 95 163 61 l 187 95 q 251 195 215 135 q 322 322 287 255 l 322 322 q 307 331 315 328 q 285 334 299 334 l 285 334 q 235 315 262 334 q 180 264 207 295 q 130 197 152 233 q 94 128 107 161 q 80 70 80 94 l 80 70 q 107 30 80 30 z"},"e":{"ha":256,"x_min":35,"x_max":327,"o":"m 131 -4 l 131 -4 q 65 20 94 -4 q 35 93 35 44 l 35 93 q 54 180 35 134 q 103 267 72 226 q 171 333 133 307 q 246 358 208 358 l 246 358 q 283 347 265 358 q 301 309 301 336 l 301 309 q 282 254 301 284 q 228 198 263 224 l 228 198 q 190 177 213 187 q 144 161 167 167 q 106 154 121 154 l 106 154 q 97 122 101 142 q 92 81 92 102 l 92 81 q 102 36 92 56 q 139 16 112 16 l 139 16 q 201 35 172 16 q 252 83 229 54 q 290 142 274 112 q 315 193 306 172 l 315 193 q 327 184 327 193 l 327 184 q 298 123 314 156 q 259 62 281 90 q 205 15 236 33 q 131 -4 173 -4 z m 113 172 l 113 172 q 160 183 127 172 q 220 216 193 193 l 220 216 q 260 267 246 239 q 274 313 274 294 l 274 313 q 258 335 274 335 l 258 335 q 225 319 246 335 q 173 265 204 303 l 173 265 q 137 213 154 241 q 113 172 120 185 z"},"f":{"ha":194,"x_min":-120,"x_max":362,"o":"m -65 -351 l -65 -351 q -103 -340 -87 -351 q -120 -297 -120 -329 l -120 -297 q -90 -161 -120 -247 q -17 28 -60 -75 l -17 28 q -29 70 -29 48 l -29 70 q -9 118 -29 105 l -9 118 q 27 129 8 132 l 27 129 q 100 289 63 210 q 172 437 137 367 q 234 560 206 507 l 234 560 q 270 611 251 593 q 318 629 288 629 l 318 629 q 340 626 327 629 q 362 623 352 622 l 362 623 q 305 550 339 601 q 230 427 270 498 q 149 274 190 356 q 69 106 107 191 l 69 106 q 91 66 85 86 q 104 18 97 46 l 104 18 q 162 43 134 16 q 213 111 189 70 q 253 193 236 152 l 253 193 q 265 184 265 193 l 265 184 q 225 99 248 142 q 172 27 201 56 q 106 -5 142 -3 l 106 -5 l 106 -31 q 94 -139 106 -83 q 58 -243 81 -195 q 4 -321 35 -291 q -65 -351 -27 -351 z m 77 14 l 77 14 l 82 14 q 74 54 81 34 q 58 83 67 73 l 58 83 l 37 32 q 77 14 46 14 z m -50 -324 l -50 -324 q -26 -312 -40 -324 q 1 -283 -12 -301 l 1 -283 q 45 -202 26 -250 q 75 -102 64 -154 q 85 -6 86 -50 l 85 -6 q 51 -1 66 -6 q 26 11 35 4 l 26 11 q -22 -121 0 -56 q -57 -237 -45 -187 l -57 -237 q -63 -270 -61 -256 q -65 -294 -65 -284 l -65 -294 q -50 -324 -65 -324 z"},"g":{"ha":396,"x_min":-105,"x_max":467,"o":"m -10 -319 l -10 -319 q -105 -241 -105 -319 l -105 -241 q -79 -175 -105 -204 q -17 -125 -53 -146 l -17 -125 q 81 -77 33 -95 q 173 -45 129 -59 q 255 -16 217 -32 l 255 -16 q 270 42 264 10 q 279 103 276 73 l 279 103 q 282 155 282 133 l 282 155 q 279 185 282 178 l 279 185 q 250 133 268 164 q 207 72 231 102 q 155 21 182 41 q 100 1 128 1 l 100 1 q 81 4 90 1 l 81 4 q 41 38 53 16 q 28 88 28 60 l 28 88 q 54 185 28 133 q 116 280 80 237 l 116 280 q 184 336 145 315 q 263 357 223 357 l 263 357 q 349 326 309 357 l 349 326 q 364 300 364 314 l 364 300 q 352 285 364 285 l 352 285 q 338 298 342 285 l 338 298 q 293 335 324 335 l 293 335 q 236 314 268 335 q 176 260 204 292 l 176 260 q 130 198 152 233 q 93 129 107 163 q 78 70 78 95 l 78 70 q 86 41 78 53 q 111 29 94 29 l 111 29 q 160 51 134 29 q 209 105 185 73 q 250 170 232 137 q 274 225 267 203 l 274 225 q 293 254 281 248 q 317 259 305 259 q 337 265 329 259 l 337 265 q 343 221 341 243 q 344 175 344 198 l 344 175 q 339 91 344 129 q 320 10 333 53 l 320 10 q 383 66 356 32 q 427 134 409 99 q 455 193 444 168 l 455 193 q 467 184 467 193 l 467 184 q 435 118 454 157 q 386 43 415 79 q 312 -14 356 6 l 312 -14 q 264 -115 295 -62 q 189 -214 232 -168 q 95 -290 146 -261 q -10 -319 44 -319 z m -34 -299 l -34 -299 q 13 -289 -12 -299 q 59 -267 37 -280 q 93 -245 81 -254 l 93 -245 q 140 -200 116 -227 q 182 -148 164 -173 l 182 -148 q 217 -97 199 -124 q 246 -45 235 -71 l 246 -45 l 205 -58 q 133 -82 172 -68 q 54 -115 93 -97 q -17 -154 15 -133 l -17 -154 q -63 -204 -45 -173 q -82 -258 -82 -235 l -82 -258 q -70 -287 -82 -275 q -34 -299 -59 -299 z"},"h":{"ha":336,"x_min":-38,"x_max":407,"o":"m -38 -8 l -38 -8 q 50 173 4 78 q 143 363 95 267 q 238 546 191 459 l 238 546 q 270 593 255 576 q 308 610 284 610 l 308 610 q 329 607 317 610 q 352 606 341 604 l 352 606 q 317 557 339 592 q 267 473 294 522 q 209 368 239 424 q 149 254 178 311 q 94 146 119 196 l 94 146 q 135 195 114 172 q 176 235 156 218 l 176 235 q 232 277 198 255 q 299 315 265 299 q 352 331 332 331 l 352 331 q 362 330 359 331 l 362 330 q 351 310 362 330 q 324 259 340 290 q 290 192 307 228 q 259 124 272 156 q 242 70 246 91 l 242 70 q 239 43 239 54 l 239 43 q 245 22 239 27 q 258 16 251 16 l 258 16 q 295 34 275 16 q 333 78 314 51 q 369 136 352 105 q 395 193 385 166 l 395 193 q 407 184 407 193 l 407 184 q 380 125 396 157 q 342 63 363 92 q 296 15 321 34 q 243 -4 271 -4 l 243 -4 q 202 10 223 -4 q 181 61 181 24 l 181 61 q 183 85 181 72 q 190 113 185 97 l 190 113 q 210 158 196 133 q 246 219 224 182 l 246 219 q 256 246 256 236 l 256 246 q 244 258 256 258 l 244 258 q 217 248 234 258 q 174 213 200 238 l 174 213 q 112 143 149 189 q 33 14 75 97 l 33 14 q 18 1 26 1 q -5 -1 9 0 l -5 -1 q -23 -2 -14 -2 q -38 -8 -32 -3 z"},"i":{"ha":176,"x_min":20,"x_max":247,"o":"m 87 0 l 87 0 q 35 22 50 0 q 20 71 20 43 l 20 71 q 24 102 20 86 q 32 130 27 117 l 32 130 l 99 301 q 102 315 102 309 l 102 315 q 97 333 102 325 q 90 343 92 340 l 90 343 l 145 345 q 167 342 160 346 q 173 331 173 337 l 173 331 q 166 309 173 325 l 166 309 q 139 249 156 285 q 106 175 122 213 q 78 104 89 137 q 66 53 66 71 l 66 53 q 73 31 66 40 q 95 22 79 22 l 95 22 q 137 39 116 22 q 175 81 157 55 q 209 137 193 107 q 235 193 224 167 l 235 193 q 247 184 247 193 l 247 184 q 221 127 237 159 q 185 67 205 95 q 140 19 164 38 q 87 0 115 0 z m 176 407 l 176 407 q 154 417 163 407 q 144 441 144 427 l 144 441 q 158 472 144 458 q 189 485 172 485 l 189 485 q 213 476 203 485 q 223 453 223 467 l 223 453 q 209 421 223 435 q 176 407 195 407 z"},"j":{"ha":178,"x_min":-397,"x_max":249,"o":"m -302 -319 l -302 -319 q -375 -298 -354 -319 q -397 -250 -397 -278 l -397 -250 q -382 -196 -397 -223 l -382 -196 q -343 -146 -368 -167 q -288 -112 -318 -126 l -288 -112 q -170 -73 -237 -88 q -43 -40 -104 -58 l -43 -40 q -26 -11 -35 -26 q -11 18 -18 4 l -11 18 q 26 98 9 58 q 68 183 43 137 l 68 183 q 59 193 59 183 l 59 193 l 103 294 q 105 300 104 296 q 106 307 106 303 l 106 307 q 101 326 106 318 q 94 336 96 333 l 94 336 l 149 338 l 154 338 q 176 324 176 338 l 176 324 q 170 302 176 317 l 170 302 l 90 114 q 60 48 76 81 q 27 -19 44 15 l 27 -19 q 139 48 97 8 q 203 127 180 87 q 237 193 225 166 l 237 193 q 249 184 249 193 l 249 184 q 223 132 239 162 q 181 68 207 101 q 114 3 155 34 q 11 -51 73 -28 l 11 -51 q -44 -140 -13 -94 q -114 -227 -75 -187 q -199 -293 -153 -268 q -302 -319 -246 -319 z m -326 -299 l -326 -299 q -257 -279 -293 -299 q -189 -228 -222 -259 q -128 -166 -156 -198 q -84 -110 -101 -134 l -84 -110 q -73 -92 -78 -102 q -63 -72 -68 -82 l -63 -72 q -169 -100 -111 -85 q -271 -135 -227 -116 l -271 -135 q -346 -191 -319 -155 q -373 -257 -373 -228 l -373 -257 q -361 -287 -373 -276 q -326 -299 -350 -299 z m 178 400 l 178 400 q 156 410 165 400 q 146 434 146 420 l 146 434 q 160 465 146 451 q 191 478 174 478 l 191 478 q 215 469 205 478 q 225 446 225 460 l 225 446 q 211 414 225 428 q 178 400 197 400 z"},"k":{"ha":360,"x_min":1,"x_max":431,"o":"m 233 -7 l 233 -7 q 187 15 205 -4 q 161 58 169 33 q 153 104 153 83 l 153 104 q 171 169 153 144 q 204 194 189 193 l 204 194 q 243 202 220 193 q 283 225 266 210 l 283 225 q 312 272 312 248 l 312 272 q 283 297 312 297 l 283 297 q 243 286 267 297 q 186 248 218 275 l 186 248 q 103 157 146 214 l 103 157 q 89 119 97 144 q 76 66 81 93 q 70 20 70 39 l 70 20 q 75 0 70 5 l 75 0 l 12 0 q 1 9 1 0 l 1 9 q 2 14 1 12 q 4 22 3 16 l 4 22 q 38 114 18 74 q 70 184 57 154 l 70 184 q 60 186 61 181 q 59 193 59 190 l 59 193 q 83 245 66 209 q 122 327 99 280 q 170 424 144 373 q 222 522 196 475 l 222 522 q 265 590 248 570 q 305 610 281 610 l 305 610 q 327 607 314 610 q 349 606 339 604 l 349 606 q 294 537 327 587 q 224 419 261 486 q 153 282 187 352 l 153 282 q 134 240 143 262 q 117 196 125 218 l 117 196 q 165 250 138 222 q 222 302 192 278 q 280 336 251 325 l 280 336 q 335 348 313 348 l 335 348 q 369 337 358 348 q 379 309 379 326 l 379 309 q 364 264 379 290 q 323 218 349 237 l 323 218 q 277 192 301 203 q 220 178 253 181 l 220 178 q 212 150 214 164 q 209 121 209 135 l 209 121 q 227 53 209 82 q 274 23 245 23 l 274 23 q 305 31 288 23 q 339 58 321 39 l 339 58 q 379 114 359 78 q 419 193 399 149 l 419 193 q 431 184 431 193 l 431 184 q 361 55 395 97 q 296 2 327 13 q 233 -7 264 -10 z"},"l":{"ha":213,"x_min":34,"x_max":343,"o":"m 106 -3 l 106 -3 q 52 20 69 -3 q 34 73 34 42 l 34 73 q 43 139 34 105 q 59 196 52 173 l 59 196 q 100 316 75 252 q 154 441 124 379 q 212 551 183 502 l 212 551 q 262 610 235 590 q 308 629 288 629 l 308 629 q 334 618 324 629 q 343 583 343 606 l 343 583 q 338 545 343 567 q 319 495 332 523 l 319 495 q 236 339 284 417 q 113 193 187 261 l 113 193 q 93 133 101 165 q 85 81 85 101 l 85 81 q 127 19 85 19 l 127 19 q 198 66 159 19 q 272 193 237 112 l 272 193 q 280 192 276 193 q 284 184 284 190 l 284 184 q 257 125 273 157 q 219 63 240 92 q 169 16 197 34 q 106 -3 141 -3 z m 121 225 l 121 225 q 191 311 157 262 q 255 412 225 359 q 304 511 284 464 l 304 511 q 316 544 311 526 q 320 574 320 562 l 320 574 q 313 588 320 588 l 313 588 q 301 581 309 588 q 280 555 293 573 l 280 555 q 239 487 261 530 q 193 395 216 444 q 151 301 170 346 q 121 225 132 255 z"},"m":{"ha":509,"x_min":-38,"x_max":580,"o":"m -38 -5 l -38 -5 q 32 138 -1 66 q 99 273 65 209 l 99 273 q 133 324 119 309 q 169 338 146 338 l 169 338 q 186 336 177 338 q 204 333 195 333 l 204 333 q 213 334 210 333 l 213 334 q 177 295 199 326 q 132 222 155 263 q 91 145 109 181 l 91 145 q 131 191 110 168 q 176 235 151 214 l 176 235 q 223 277 198 254 q 271 315 247 299 q 313 331 295 331 l 313 331 q 322 330 320 331 l 322 330 q 341 304 341 322 l 341 304 q 336 286 341 298 l 336 286 q 303 217 323 252 q 264 145 282 181 l 264 145 q 302 189 279 163 q 347 235 324 215 l 347 235 q 403 277 369 255 q 470 315 437 299 q 523 331 503 331 l 523 331 q 533 330 530 331 l 533 330 q 522 311 533 330 q 495 260 511 291 q 461 193 478 228 q 431 125 444 157 q 413 70 417 92 l 413 70 q 410 46 410 57 l 410 46 q 416 25 410 30 q 429 20 422 20 l 429 20 q 469 37 449 20 q 507 81 488 54 q 542 137 526 107 q 568 193 557 167 l 568 193 q 580 184 580 193 l 580 184 q 553 125 569 157 q 515 63 536 92 q 469 15 494 34 q 415 -4 444 -4 l 415 -4 q 376 10 394 -4 q 357 62 357 24 l 357 62 q 377 144 357 103 q 417 219 396 185 l 417 219 q 427 246 427 236 l 427 246 q 415 258 427 258 l 415 258 q 388 248 405 258 q 344 213 370 238 l 344 213 q 307 172 328 198 q 263 114 285 145 q 225 53 241 83 q 204 0 209 23 l 204 0 q 180 13 189 0 q 171 42 171 25 l 171 42 q 171 48 171 45 q 172 55 171 51 l 172 55 q 188 108 177 86 q 213 158 199 129 l 213 158 q 229 189 220 171 q 245 223 238 206 q 252 250 252 239 l 252 250 q 244 260 252 260 l 244 260 q 221 251 235 260 q 193 231 206 242 q 173 213 180 219 l 173 213 q 113 144 148 189 q 35 16 77 99 l 35 16 q 21 3 29 5 q -4 0 13 0 l -4 0 q -22 0 -15 0 q -38 -5 -30 -1 z"},"n":{"ha":338,"x_min":-37,"x_max":409,"o":"m -37 -8 l -37 -8 q 32 137 -1 65 q 100 273 65 208 l 100 273 q 134 324 120 309 q 171 338 148 338 l 171 338 q 188 336 179 338 q 206 333 197 333 l 206 333 q 215 334 212 333 l 215 334 q 179 295 201 326 q 133 222 156 263 q 92 145 110 181 l 92 145 q 132 191 111 168 q 178 235 153 214 l 178 235 q 236 279 202 256 q 301 316 269 301 q 352 331 333 331 l 352 331 q 362 330 359 331 l 362 330 q 351 311 362 330 q 324 260 340 291 q 290 193 307 228 q 260 125 273 157 q 242 70 246 92 l 242 70 q 239 46 239 57 l 239 46 q 245 25 239 30 q 258 20 251 20 l 258 20 q 297 37 277 20 q 336 81 317 54 q 370 137 354 107 q 397 193 386 167 l 397 193 q 409 184 409 193 l 409 184 q 382 125 398 157 q 345 63 365 92 q 299 15 324 34 q 245 -4 274 -4 l 245 -4 q 204 10 225 -4 q 182 62 182 24 l 182 62 q 184 86 182 73 q 191 113 186 98 l 191 113 q 210 156 199 133 q 246 219 221 179 l 246 219 q 255 236 253 230 q 256 246 256 242 l 256 246 q 245 258 256 258 l 245 258 q 219 248 236 258 q 175 213 201 238 l 175 213 q 116 145 150 189 q 36 15 81 101 l 36 15 q 21 1 29 2 q -3 -1 12 0 l -3 -1 q -22 -2 -13 -2 q -37 -8 -31 -3 z"},"o":{"ha":338,"x_min":39,"x_max":409,"o":"m 119 0 l 119 0 q 59 30 78 0 q 39 101 39 59 l 39 101 q 54 182 39 140 l 54 182 q 99 266 70 228 q 162 328 127 304 q 230 351 196 351 l 230 351 q 291 323 271 351 q 310 252 310 295 l 310 252 q 300 189 310 222 q 273 124 290 156 l 273 124 q 310 111 286 111 l 310 111 q 358 129 338 111 q 397 193 378 147 l 397 193 q 409 184 409 193 l 409 184 q 366 117 390 138 q 303 96 341 95 l 303 96 q 265 109 280 96 l 265 109 q 199 32 237 63 q 119 0 160 0 z m 133 22 l 133 22 q 179 42 156 22 q 221 86 202 61 q 248 129 240 111 l 248 129 q 230 173 232 158 q 227 194 227 187 l 227 194 q 237 223 227 213 q 257 233 247 233 l 257 233 q 281 221 271 233 l 281 221 q 284 242 283 232 q 285 260 285 251 l 285 260 q 276 303 285 286 q 246 319 266 319 l 246 319 q 202 301 225 319 q 159 253 179 283 q 123 186 138 223 l 123 186 q 103 128 110 155 q 96 77 96 100 l 96 77 q 105 37 96 52 q 133 22 114 22 z"},"p":{"ha":336,"x_min":-148,"x_max":357,"o":"m -98 -273 l -98 -273 q -122 -269 -110 -273 q -148 -268 -135 -266 l -148 -268 q -125 -233 -142 -262 q -85 -162 -108 -205 q -37 -70 -62 -120 q 10 28 -13 -21 q 50 118 33 76 q 71 184 66 159 l 71 184 q 62 186 66 184 q 59 193 58 188 l 59 193 q 65 211 59 193 q 77 255 71 229 q 83 301 83 280 l 83 301 q 80 325 83 315 q 69 336 77 335 l 69 336 l 119 344 q 130 346 125 345 q 139 346 135 346 l 139 346 q 152 340 148 346 q 155 313 155 333 l 155 313 q 147 250 155 288 q 127 182 138 211 l 127 182 q 156 228 138 200 q 196 285 173 256 q 244 334 219 314 q 293 353 269 353 l 293 353 q 306 351 298 353 l 306 351 q 346 324 334 344 q 357 275 357 303 l 357 275 q 346 209 357 245 q 315 139 334 173 q 273 76 296 104 l 273 76 q 206 20 245 41 q 126 -1 167 -1 l 126 -1 q 57 18 89 -1 l 57 18 l -38 -221 q -65 -262 -52 -251 q -98 -273 -78 -273 z m 94 20 l 94 20 q 157 46 122 20 q 225 113 192 72 q 279 194 257 153 l 279 194 q 301 246 294 222 q 308 286 308 269 l 308 286 q 280 325 308 325 l 280 325 q 247 311 267 325 q 199 260 226 297 l 199 260 q 136 160 170 220 q 65 32 101 99 l 65 32 q 94 20 77 20 z"},"q":{"ha":347,"x_min":29,"x_max":372,"o":"m 134 -289 l 134 -289 q 121 -273 130 -280 q 106 -259 112 -266 l 106 -259 q 92 -225 92 -244 l 92 -225 q 98 -197 92 -213 q 112 -163 103 -182 l 112 -163 q 166 -44 144 -91 q 203 35 187 2 q 233 95 219 67 q 263 158 247 123 l 263 158 q 252 140 261 154 q 230 107 242 125 q 207 75 217 89 q 193 56 196 60 l 193 56 q 152 18 175 35 q 102 1 128 1 l 102 1 q 82 4 93 1 l 82 4 q 42 38 54 16 q 29 88 29 60 l 29 88 q 55 185 29 133 q 117 280 81 237 l 117 280 q 185 336 146 315 q 264 357 224 357 l 264 357 q 308 350 286 357 q 349 326 330 342 l 349 326 q 362 313 358 319 q 365 300 365 306 l 365 300 q 353 285 365 285 l 353 285 q 339 298 343 285 l 339 298 q 294 335 325 335 l 294 335 q 242 316 270 335 q 185 265 213 296 q 132 198 156 234 q 94 128 108 162 q 79 69 79 94 l 79 69 q 99 32 79 41 l 99 32 q 105 31 102 31 q 110 30 108 30 l 110 30 q 156 53 131 30 q 203 107 180 75 q 243 167 225 138 q 267 208 260 195 l 267 208 q 299 250 287 241 q 329 257 310 259 l 329 257 q 348 254 334 256 q 372 253 361 252 l 372 253 q 329 177 353 224 q 278 75 304 130 q 228 -38 252 19 q 183 -147 203 -96 q 150 -235 162 -198 q 134 -289 137 -273 z"},"r":{"ha":259,"x_min":55,"x_max":330,"o":"m 60 196 l 60 196 q 81 251 68 213 q 108 334 94 288 q 129 421 122 380 l 129 421 q 140 445 132 437 q 157 452 148 452 l 157 452 q 181 440 170 452 q 192 404 192 427 l 192 404 q 176 356 192 376 q 135 318 159 336 l 135 318 q 156 317 145 317 q 180 316 167 316 l 180 316 q 273 322 227 316 l 273 322 q 275 313 275 316 l 275 313 q 268 280 275 300 q 252 244 260 260 l 252 244 q 236 212 248 235 q 210 159 224 188 q 187 101 196 129 q 177 52 177 72 l 177 52 q 197 26 177 26 l 197 26 q 250 71 216 26 q 318 193 284 115 l 318 193 q 330 184 330 193 l 330 184 q 303 125 319 157 q 266 65 286 93 q 223 18 246 36 q 175 -1 200 -1 l 175 -1 q 137 15 156 -1 q 118 65 118 30 l 118 65 q 130 126 118 96 q 157 181 142 155 q 184 227 172 207 q 196 259 196 247 l 196 259 q 174 285 196 277 q 115 294 151 293 l 115 294 q 88 226 97 248 q 71 184 79 204 l 71 184 q 60 196 55 184 z"},"s":{"ha":267,"x_min":-12,"x_max":337,"o":"m 80 -4 l 80 -4 q 14 22 39 -4 q -12 75 -12 47 l -12 75 q 0 118 -12 98 q 30 137 11 137 l 30 137 l 31 139 q 74 221 53 179 q 119 309 94 262 l 119 309 q 165 373 140 348 q 222 398 189 398 l 222 398 q 244 395 230 398 q 258 380 258 391 l 258 380 q 249 372 258 372 l 249 372 q 234 376 242 372 q 220 380 225 380 l 220 380 q 188 358 201 380 q 175 311 175 336 l 175 311 q 184 263 175 284 q 205 221 193 241 q 226 181 217 201 q 235 136 235 160 l 235 136 q 217 59 235 88 q 168 14 198 29 l 168 14 l 169 14 q 257 64 222 14 q 325 193 291 113 l 325 193 q 337 184 337 193 l 337 184 q 295 96 318 139 q 241 25 272 53 q 165 -3 210 -3 l 165 -3 q 130 1 146 -3 l 130 1 q 80 -4 107 -4 z m 65 102 l 65 102 q 76 56 65 78 q 116 23 87 34 l 116 23 q 157 70 142 38 q 171 135 171 101 l 171 135 q 165 192 171 163 q 153 249 159 221 q 146 299 146 277 l 146 299 q 147 312 146 306 q 148 322 147 317 l 148 322 q 112 259 130 295 q 76 190 93 223 q 45 136 59 157 l 45 136 q 65 102 65 133 z m 32 52 l 32 52 q 43 24 32 36 q 76 12 54 12 l 76 12 q 95 14 86 12 l 95 14 q 62 47 74 27 q 49 93 49 67 l 49 93 q 36 73 40 83 q 32 52 32 62 z"},"t":{"ha":201,"x_min":34,"x_max":279,"o":"m 266 528 l 266 528 q 237 480 253 509 q 208 424 221 451 q 187 383 194 397 l 187 383 l 279 383 q 276 370 279 379 q 262 357 272 361 l 262 357 l 175 357 q 148 292 163 330 q 118 213 132 254 q 94 137 103 172 q 84 79 84 101 l 84 79 q 92 35 84 49 q 121 20 100 20 l 121 20 q 173 47 148 20 q 221 113 198 73 q 260 193 243 153 l 260 193 q 272 184 272 193 l 272 184 q 245 125 261 157 q 209 64 229 93 q 163 16 188 34 q 106 -3 137 -3 l 106 -3 q 49 21 64 -3 q 34 81 34 44 l 34 81 q 44 147 34 108 q 69 226 54 185 q 97 303 83 267 q 119 357 111 338 l 119 357 l 55 357 q 62 374 55 365 q 77 383 69 383 l 77 383 l 130 383 q 149 423 138 399 q 177 476 159 447 l 177 476 q 216 514 192 500 q 266 528 239 528 z"},"u":{"ha":356,"x_min":23,"x_max":427,"o":"m 88 0 l 88 0 q 62 5 77 0 q 35 24 46 10 q 23 64 23 37 l 23 64 q 40 124 23 90 q 70 184 57 158 l 70 184 q 59 193 59 184 l 59 193 q 68 212 60 196 q 87 250 76 228 q 109 293 98 272 q 125 324 119 313 l 125 324 q 163 346 137 346 l 163 346 l 225 346 q 195 318 208 333 q 161 261 181 302 l 161 261 q 154 247 161 261 q 137 212 147 233 q 116 168 126 190 q 98 131 105 146 l 98 131 q 81 87 85 103 q 77 56 77 70 l 77 56 q 99 23 77 23 l 99 23 q 157 62 123 23 l 157 62 q 212 141 185 95 q 264 236 239 187 q 307 324 288 285 l 307 324 q 346 346 318 346 l 346 346 l 401 346 q 357 292 379 328 q 307 200 334 256 l 307 200 q 289 162 300 185 q 270 113 278 139 q 261 61 261 87 l 261 61 q 286 26 261 26 l 286 26 q 352 73 320 26 q 415 193 384 120 l 415 193 q 425 192 423 193 q 427 184 426 191 l 427 184 q 401 126 416 157 q 366 65 385 94 q 323 18 346 36 q 271 0 299 0 l 271 0 q 230 19 246 0 q 214 71 214 37 l 214 71 q 224 129 214 98 l 224 129 q 185 69 207 99 q 138 20 163 39 q 88 0 113 0 z"},"v":{"ha":309,"x_min":37,"x_max":380,"o":"m 92 -7 l 92 -7 q 49 9 61 -7 q 37 50 37 25 l 37 50 q 46 109 37 76 q 70 183 55 142 l 70 183 q 59 193 59 183 l 59 193 q 77 239 67 213 q 86 296 86 264 l 86 296 q 82 323 86 312 q 70 336 78 334 l 70 336 q 81 338 70 336 q 103 342 91 340 q 119 344 115 344 l 119 344 q 130 346 125 345 q 139 346 135 346 l 139 346 q 153 338 149 346 q 155 303 156 330 l 155 303 q 145 243 154 278 q 126 181 136 207 l 126 181 q 102 112 113 147 q 91 54 91 77 l 91 54 q 102 28 91 34 l 102 28 q 116 25 110 25 l 116 25 q 161 47 139 25 q 203 101 183 69 q 235 161 222 132 l 235 161 q 229 216 229 184 l 229 216 q 237 285 229 250 q 262 344 245 320 q 306 367 279 367 l 306 367 q 325 350 325 367 l 325 350 q 316 316 325 346 q 291 245 306 286 q 259 166 276 204 l 259 166 q 252 150 255 158 l 252 150 q 267 123 256 133 q 294 112 278 112 l 294 112 q 332 131 314 112 q 368 193 349 149 l 368 193 q 380 184 380 193 l 380 184 q 342 120 364 144 q 291 96 319 96 l 291 96 q 242 131 257 96 l 242 131 q 202 65 225 96 q 152 13 179 33 q 92 -7 124 -7 z"},"w":{"ha":495,"x_min":24,"x_max":566,"o":"m 279 -2 l 279 -2 q 269 -1 273 -2 q 257 0 264 -1 l 257 0 q 223 28 232 5 q 213 76 213 50 l 213 76 q 216 108 213 92 q 222 135 218 123 l 222 135 q 199 97 213 119 q 167 52 185 74 q 129 15 149 30 q 88 0 109 0 l 88 0 q 49 12 67 0 q 26 46 31 24 l 26 46 q 25 56 25 51 q 24 64 24 60 l 24 64 q 38 117 24 90 q 71 184 52 144 l 71 184 q 63 185 66 184 q 59 193 59 186 l 59 193 q 99 278 82 245 q 123 324 115 310 l 123 324 q 164 346 136 346 l 164 346 l 226 346 q 196 318 209 333 q 162 261 182 302 l 162 261 q 155 247 162 261 q 138 212 148 233 q 117 169 127 191 q 99 131 106 147 l 99 131 q 84 90 89 109 q 79 57 79 71 l 79 57 q 102 22 79 22 l 102 22 q 138 42 118 22 l 138 42 q 186 104 161 64 q 233 187 210 143 q 274 269 256 231 q 301 324 292 306 l 301 324 q 315 341 306 335 q 339 346 323 346 l 339 346 l 400 346 q 383 333 394 340 q 360 308 371 326 l 360 308 q 335 264 346 284 q 305 202 324 243 l 305 202 q 290 167 301 193 q 268 110 278 141 q 258 54 258 79 l 258 54 q 265 28 258 38 q 288 18 272 18 l 288 18 q 342 41 316 18 q 388 97 367 64 q 421 161 408 130 l 421 161 q 419 185 420 169 q 417 211 417 200 l 417 211 q 438 322 417 276 q 492 367 458 367 l 492 367 q 511 350 511 367 l 511 350 q 505 327 511 347 q 488 276 498 306 q 464 213 477 246 q 438 151 451 180 l 438 151 q 452 123 441 134 q 480 112 463 112 l 480 112 q 518 131 500 112 q 554 193 535 149 l 554 193 q 566 184 566 193 l 566 184 q 528 120 550 144 q 477 96 505 96 l 477 96 q 428 131 443 96 l 428 131 q 364 38 401 77 q 279 -2 326 -2 z"},"x":{"ha":334,"x_min":-7,"x_max":405,"o":"m 11 -34 l 11 -34 q -4 -26 -2 -34 q -7 -14 -7 -19 l -7 -14 q 51 7 23 -14 q 103 62 79 28 q 144 136 126 96 q 171 212 161 175 q 181 275 181 249 l 181 275 q 160 310 181 310 l 160 310 q 131 294 147 310 q 101 250 115 278 l 101 250 q 81 208 90 229 q 71 184 72 187 l 71 184 l 71 184 q 71 184 71 184 q 71 184 71 184 l 71 184 q 63 185 66 184 q 59 193 59 186 l 59 193 q 74 228 65 207 q 93 268 83 249 l 93 268 q 126 316 107 296 q 176 336 145 336 l 176 336 q 223 315 211 336 q 234 265 234 294 l 234 265 q 228 209 234 238 l 228 209 q 271 280 247 245 q 316 334 294 314 l 316 334 q 337 351 327 345 q 359 357 347 357 l 359 357 q 380 351 371 357 q 388 332 388 345 l 388 332 q 375 306 388 317 q 347 294 362 294 l 347 294 q 322 312 325 294 l 322 312 q 281 263 302 293 q 242 200 260 233 q 213 134 224 166 l 213 134 q 210 97 210 115 l 210 97 q 218 47 210 71 q 251 23 225 23 l 251 23 q 326 69 293 23 q 393 193 359 115 l 393 193 q 405 184 405 193 l 405 184 q 379 126 394 157 q 344 65 364 94 q 298 18 324 36 q 238 0 272 0 l 238 0 q 193 15 211 0 q 166 51 175 29 q 157 93 157 72 l 157 93 l 157 118 q 104 30 134 69 q 44 -24 73 -10 l 44 -24 q 28 -31 35 -28 q 11 -34 21 -34 z"},"y":{"ha":381,"x_min":-175,"x_max":452,"o":"m -79 -319 l -79 -319 q -153 -298 -131 -319 q -175 -250 -175 -278 l -175 -250 q -143 -170 -175 -207 q -66 -112 -112 -134 l -66 -112 q 53 -73 -14 -88 q 180 -40 119 -58 l 180 -40 q 215 36 199 -7 q 244 119 231 78 q 265 185 257 159 l 265 185 q 235 132 253 163 q 193 70 216 100 q 144 20 170 40 q 88 0 117 0 l 88 0 q 62 5 77 0 q 35 24 46 10 q 23 64 23 37 l 23 64 q 39 122 23 90 q 71 184 55 153 l 71 184 q 63 185 66 184 q 59 193 59 186 l 59 193 q 71 219 62 199 q 92 263 80 239 q 112 305 103 287 l 112 305 q 137 337 123 328 q 163 346 150 346 l 163 346 l 225 346 q 208 333 218 340 q 188 310 197 325 l 188 310 q 141 222 161 264 q 98 131 121 179 l 98 131 q 82 89 87 108 q 77 56 77 70 l 77 56 q 99 23 77 23 l 99 23 q 157 62 123 23 l 157 62 q 214 141 185 95 q 269 235 242 186 q 315 324 295 283 l 315 324 q 354 346 326 346 l 354 346 l 409 346 q 365 294 380 326 q 330 212 349 262 l 330 212 q 290 98 309 157 q 248 -23 271 39 l 248 -23 q 330 21 297 -6 q 389 91 363 48 q 440 193 414 133 l 440 193 q 452 184 452 193 l 452 184 q 412 103 430 138 q 372 42 394 68 q 317 -7 350 15 q 232 -51 284 -30 l 232 -51 q 178 -140 208 -94 q 109 -227 147 -187 q 24 -293 70 -268 q -79 -319 -23 -319 z m -103 -299 l -103 -299 q -35 -279 -70 -299 q 33 -228 0 -259 q 94 -166 66 -198 q 138 -111 121 -135 l 138 -111 q 149 -93 143 -104 q 161 -72 155 -82 l 161 -72 q 54 -100 112 -85 q -48 -135 -5 -116 l -48 -135 q -123 -192 -96 -155 q -151 -258 -151 -229 l -151 -258 q -139 -287 -151 -276 q -103 -299 -128 -299 z"},"z":{"ha":343,"x_min":20,"x_max":414,"o":"m 59 193 l 59 193 q 74 227 66 209 q 97 271 82 244 l 97 271 q 135 319 115 303 q 174 339 155 334 q 205 344 193 344 l 205 344 q 249 337 230 344 q 284 323 268 330 q 314 315 299 315 l 314 315 q 342 325 333 315 q 358 335 351 335 l 358 335 q 370 329 365 335 q 375 314 375 323 l 375 314 q 364 295 375 301 q 327 275 353 289 l 327 275 q 277 232 299 260 q 235 172 255 204 q 190 110 214 140 q 134 58 166 79 l 134 58 q 204 45 172 52 q 260 38 236 38 l 260 38 q 271 39 266 38 q 280 40 275 39 l 280 40 q 333 73 310 48 q 372 129 355 97 q 402 193 389 161 l 402 193 q 414 184 414 193 l 414 184 q 371 95 396 139 q 315 22 346 51 q 247 -7 284 -7 l 247 -7 q 169 1 203 -7 q 112 9 135 9 l 112 9 q 76 -1 93 9 q 38 -12 58 -12 l 38 -12 q 20 3 20 -12 l 20 3 q 25 20 20 13 l 25 20 q 46 34 28 26 q 84 49 64 41 q 110 60 103 56 l 110 60 q 150 95 128 69 q 194 153 171 120 q 239 216 217 185 q 281 268 261 247 l 281 268 q 240 277 263 272 q 197 282 217 282 l 197 282 q 147 277 168 282 q 109 250 126 271 q 71 184 91 229 l 71 184 q 59 193 59 184 z"}," ":{"ha":171,"x_min":0,"x_max":0,"o":""},".":{"ha":205,"x_min":70,"x_max":155,"o":"m 106 -15 l 106 -15 q 80 -5 90 -15 q 70 20 70 5 l 70 20 q 86 54 70 40 q 119 68 101 68 l 119 68 q 145 59 135 68 q 155 34 155 49 l 155 34 q 140 0 155 15 q 106 -15 125 -15 z"},",":{"ha":215,"x_min":49,"x_max":165,"o":"m 56 -105 l 56 -105 q 49 -95 49 -105 l 49 -95 q 107 -61 84 -84 q 134 -5 130 -38 l 134 -5 q 121 -12 128 -9 q 106 -16 114 -16 l 106 -16 q 83 -5 91 -16 q 74 20 74 5 l 74 20 q 90 56 74 44 q 121 67 105 67 l 121 67 q 154 54 142 67 q 165 20 165 40 l 165 20 q 148 -39 165 -13 q 106 -82 131 -65 q 56 -105 81 -99 z"},":":{"ha":295,"x_min":70,"x_max":265,"o":"m 216 210 l 216 210 q 190 220 200 210 q 180 245 180 230 l 180 245 q 195 280 180 265 q 229 294 210 294 l 229 294 q 255 284 245 294 q 265 259 265 274 l 265 259 q 250 225 265 240 q 216 210 234 210 z m 104 -15 l 104 -15 q 80 -5 90 -15 q 70 20 70 5 l 70 20 q 85 54 70 40 q 119 68 100 68 l 119 68 q 145 59 135 68 q 154 34 154 49 l 154 34 q 139 0 154 15 q 104 -15 123 -15 z"},";":{"ha":296,"x_min":49,"x_max":266,"o":"m 217 210 l 217 210 q 191 220 201 210 q 181 245 181 230 l 181 245 q 196 280 181 265 q 230 294 211 294 l 230 294 q 256 284 246 294 q 266 259 266 274 l 266 259 q 251 225 266 240 q 217 210 235 210 z m 60 -103 l 60 -103 q 55 -104 57 -104 l 55 -104 q 49 -100 49 -104 l 49 -100 q 57 -92 49 -95 l 57 -92 q 108 -60 86 -83 q 135 -4 130 -38 l 135 -4 q 105 -15 121 -15 l 105 -15 q 81 -5 91 -15 q 71 20 71 5 l 71 20 q 86 54 71 40 q 120 68 101 68 l 120 68 q 151 51 141 68 q 160 14 160 34 l 160 14 q 144 -42 160 -19 q 105 -80 128 -66 q 60 -103 82 -95 z"},"!":{"ha":312,"x_min":79,"x_max":440,"o":"m 157 107 l 157 107 l 146 109 l 147 115 l 352 602 q 371 619 357 616 q 401 622 385 622 l 401 622 l 433 622 l 438 619 l 440 614 q 424 580 438 607 q 387 511 410 552 q 336 420 364 469 q 280 321 308 370 q 226 227 251 271 q 182 151 200 183 q 157 107 164 119 z m 118 -15 l 118 -15 q 89 -2 99 -15 q 80 28 79 11 l 80 28 q 94 57 80 46 q 124 68 108 68 l 124 68 q 151 59 140 68 q 163 34 162 49 l 163 34 q 151 0 165 15 q 118 -15 137 -15 z"},"?":{"ha":405,"x_min":129,"x_max":502,"o":"m 211 161 l 211 161 q 202 154 208 154 l 202 154 q 195 159 198 154 q 192 168 191 163 l 192 168 q 224 246 201 206 q 277 326 247 286 q 338 402 307 365 q 394 469 369 438 l 394 469 q 422 514 414 494 q 430 551 430 534 l 430 551 q 411 593 430 578 q 361 607 391 607 l 361 607 q 328 603 345 607 q 293 590 311 599 l 293 590 q 252 559 270 579 q 236 520 233 538 l 236 520 q 249 541 239 532 q 271 556 258 549 l 271 556 q 300 564 286 564 l 300 564 q 326 553 317 564 q 335 527 335 542 l 335 527 q 312 483 335 502 l 312 483 q 268 467 290 467 l 268 467 q 233 481 247 467 q 218 519 218 495 l 218 519 q 237 571 218 547 q 286 613 256 595 q 348 641 315 631 q 408 651 380 651 l 408 651 q 476 632 449 651 q 502 576 502 612 l 502 576 q 487 519 502 551 q 436 446 471 486 l 436 446 q 372 379 404 409 q 311 317 340 348 q 256 249 281 286 q 211 161 230 212 z m 165 -15 l 165 -15 q 138 -2 146 -15 q 131 28 129 11 l 131 28 q 148 57 133 46 q 179 68 163 68 l 179 68 q 205 59 195 68 q 215 34 215 49 l 215 34 q 200 0 215 15 q 165 -15 184 -15 z"},"*":{"ha":553,"x_min":166,"x_max":560,"o":"m 358 446 l 248 327 q 235 323 244 323 l 235 323 q 218 328 226 323 q 210 342 210 333 l 210 342 q 218 359 210 351 l 218 359 l 319 460 l 186 456 q 173 464 179 456 q 166 482 166 472 l 166 482 q 171 495 166 489 q 188 500 176 500 l 188 500 l 334 500 q 307 562 321 530 q 276 626 292 593 l 276 626 q 273 638 273 634 l 273 638 q 283 649 273 649 l 283 649 q 296 645 289 649 q 309 627 302 640 l 309 627 q 339 570 321 605 q 370 512 357 535 l 370 512 l 486 629 q 499 636 493 636 l 499 636 q 508 624 508 636 l 508 624 q 493 593 508 610 l 493 593 l 407 500 l 544 500 q 560 490 560 500 l 560 490 q 551 476 560 483 q 525 468 542 469 l 525 468 l 393 464 q 419 411 406 437 q 446 358 431 385 l 446 358 q 443 335 451 349 q 423 321 434 321 l 423 321 q 415 324 420 321 q 407 334 410 327 l 407 334 q 389 376 403 345 q 358 446 375 407 l 358 446 z"},"#":{"ha":801,"x_min":165,"x_max":833,"o":"m 198 -15 l 198 -15 q 188 -22 194 -22 q 179 -23 182 -23 l 179 -23 q 167 -15 171 -23 l 167 -15 q 170 -2 165 -10 q 178 11 175 6 l 178 11 q 233 100 196 40 q 319 240 270 160 l 319 240 l 169 240 q 174 258 169 248 q 194 270 179 268 l 194 270 l 337 270 q 383 348 359 307 q 432 430 407 388 l 432 430 l 256 430 q 261 448 256 438 q 281 460 266 458 l 281 460 l 450 460 q 517 577 483 517 q 584 696 551 636 l 584 696 q 597 707 589 704 q 613 709 604 709 l 613 709 q 631 706 622 709 q 641 696 639 702 l 641 696 q 639 686 642 694 l 639 686 q 577 587 614 646 q 497 460 539 528 l 497 460 l 640 460 q 707 577 673 517 q 774 696 741 636 l 774 696 q 787 707 779 704 q 803 709 794 709 l 803 709 q 821 706 812 709 q 831 696 829 702 l 831 696 q 828 687 833 693 l 828 687 q 766 588 803 647 q 687 460 729 528 l 687 460 l 820 460 q 817 443 820 456 q 797 430 814 430 l 797 430 l 668 430 q 618 350 643 390 q 568 270 593 309 l 568 270 l 733 270 q 730 253 733 266 q 710 240 727 240 l 710 240 l 550 240 q 453 86 497 155 q 388 -15 409 17 l 388 -15 q 378 -22 384 -22 q 369 -23 372 -23 l 369 -23 q 357 -15 361 -23 l 357 -15 q 360 -2 355 -10 q 368 11 365 6 l 368 11 q 423 100 386 40 q 509 240 460 160 l 509 240 l 360 240 q 263 86 307 155 q 198 -15 219 17 z m 378 270 l 378 270 l 527 270 q 573 348 549 307 q 622 430 597 388 l 622 430 l 478 430 q 429 350 454 390 q 378 270 403 309 z"},"/":{"ha":501,"x_min":80,"x_max":818,"o":"m 111 -32 l 111 -32 q 98 -40 104 -39 q 89 -41 92 -41 l 89 -41 q 80 -32 80 -41 l 80 -32 q 88 -16 80 -25 q 101 -1 96 -7 l 101 -1 q 176 87 127 29 q 290 224 224 145 q 433 397 356 303 q 594 594 510 491 q 761 803 677 697 l 761 803 q 777 816 768 812 q 795 819 786 819 l 795 819 q 811 815 804 819 q 818 804 818 811 l 818 804 q 812 792 818 800 l 812 792 q 728 693 777 751 q 620 566 678 634 q 501 426 562 498 q 381 283 440 353 q 269 151 321 213 q 175 42 216 89 q 111 -32 134 -6 z"},"\\":{"ha":831,"x_min":10,"x_max":752,"o":"m 722 -32 l 722 -32 q 654 28 696 -15 q 558 132 611 71 q 445 265 504 193 q 325 412 385 337 q 207 559 264 487 q 100 691 149 630 q 16 792 51 751 l 16 792 q 10 804 10 800 l 10 804 q 17 815 10 811 q 33 819 24 819 l 33 819 q 51 816 42 819 q 67 803 60 812 l 67 803 q 235 591 151 697 q 396 387 318 485 q 541 208 474 289 q 660 68 608 126 q 741 -17 711 9 l 741 -17 q 752 -34 752 -26 l 752 -34 q 744 -41 752 -41 l 744 -41 q 736 -39 741 -41 q 722 -32 730 -37 z"},"-":{"ha":404,"x_min":123,"x_max":392,"o":"m 363 210 l 128 210 q 123 214 123 210 l 123 214 q 129 231 123 221 q 150 240 134 240 l 150 240 l 387 240 q 392 236 392 240 l 392 236 q 386 218 392 225 q 363 210 380 210 l 363 210 z"},"_":{"ha":729,"x_min":-33,"x_max":759,"o":"m 753 -130 l -24 -130 q -30 -123 -28 -130 q -33 -110 -33 -117 l -33 -110 q -26 -99 -33 -103 q -13 -95 -20 -95 l -13 -95 l 731 -95 q 750 -104 742 -95 q 759 -123 758 -113 l 759 -123 l 753 -130 z"},"(":{"ha":532,"x_min":155,"x_max":652,"o":"m 387 -45 l 387 -45 q 377 -56 387 -51 q 343 -61 366 -61 l 343 -61 q 248 -28 290 -61 q 180 63 205 4 q 155 198 155 121 l 155 198 q 181 347 155 273 q 253 487 207 420 q 360 609 299 554 q 489 703 420 664 q 628 759 557 742 l 628 759 q 636 761 632 760 q 643 761 639 761 l 643 761 q 652 755 652 761 l 652 755 q 632 738 652 743 l 632 738 q 497 681 561 722 q 381 580 433 639 q 291 451 329 520 q 232 309 252 381 q 211 169 211 236 l 211 169 q 227 65 211 111 q 273 -10 242 18 q 350 -38 304 -38 l 350 -38 q 365 -37 357 -38 q 377 -37 372 -37 l 377 -37 q 387 -45 387 -37 z"},")":{"ha":512,"x_min":15,"x_max":512,"o":"m 280 745 l 280 745 q 291 756 280 751 q 324 761 301 761 l 324 761 q 420 729 377 761 q 487 638 462 696 q 512 502 512 579 l 512 502 q 486 354 512 427 q 414 213 460 280 q 308 91 368 146 q 179 -3 247 36 q 39 -59 110 -42 l 39 -59 q 32 -60 35 -60 q 24 -61 29 -61 l 24 -61 q 15 -55 15 -61 l 15 -55 q 35 -38 15 -43 l 35 -38 q 170 20 106 -22 q 286 121 234 61 q 377 250 338 180 q 436 392 415 319 q 456 531 456 464 l 456 531 q 441 636 456 589 q 395 710 425 682 q 317 738 364 738 l 317 738 q 303 738 310 738 q 290 737 295 737 l 290 737 q 280 745 280 737 z"},"{":{"ha":549,"x_min":158,"x_max":584,"o":"m 383 -133 l 377 -133 q 246 -96 278 -133 l 246 -96 q 233 -68 236 -85 q 229 -32 229 -52 l 229 -32 q 239 39 229 1 q 260 108 249 76 q 273 156 270 140 l 273 156 q 279 208 279 186 l 279 208 q 276 239 279 228 q 265 257 272 249 l 265 257 q 249 273 256 268 q 230 283 242 278 l 230 283 q 201 291 217 289 q 165 292 185 292 l 165 292 q 158 297 158 292 l 158 297 q 165 311 158 303 q 171 319 171 319 l 171 319 q 243 333 214 324 q 287 354 271 341 l 287 354 q 334 456 319 379 l 334 456 q 345 515 339 481 q 361 583 351 548 q 385 647 370 617 q 424 695 400 677 l 424 695 q 485 721 447 712 q 569 729 523 729 l 569 729 l 573 729 q 584 723 584 729 l 584 723 q 578 712 584 718 q 568 706 572 706 l 568 706 q 465 679 495 706 l 465 679 q 427 617 440 657 q 406 531 414 577 q 387 442 398 485 q 352 371 375 399 l 352 371 q 217 306 311 321 l 217 306 q 284 284 258 298 q 321 252 310 270 l 321 252 q 331 203 331 235 l 331 203 q 322 137 331 173 q 302 69 312 101 q 287 18 291 37 l 287 18 q 281 -36 281 -12 l 281 -36 q 295 -84 281 -68 l 295 -84 q 385 -110 317 -110 l 385 -110 l 386 -110 q 392 -118 392 -110 l 392 -118 q 390 -128 392 -123 q 383 -133 387 -133 l 383 -133 z"},"}":{"ha":508,"x_min":51,"x_max":486,"o":"m 61 -133 l 57 -133 q 51 -125 51 -133 l 51 -125 q 55 -115 51 -120 q 65 -110 58 -110 l 65 -110 q 171 -83 136 -110 l 171 -83 q 202 -37 192 -67 q 218 30 212 -7 q 232 105 224 66 q 254 177 239 143 q 295 236 268 211 l 295 236 q 350 269 317 255 q 425 291 382 283 l 425 291 q 328 346 350 304 l 328 346 q 321 383 321 360 l 321 383 q 330 451 321 414 q 350 522 339 488 q 367 575 361 556 l 367 575 q 380 644 380 615 l 380 644 q 373 675 380 664 l 373 675 q 281 702 354 702 l 281 702 q 274 706 274 702 l 274 706 q 281 718 274 711 q 288 725 288 725 l 288 725 l 292 725 q 376 717 343 725 q 422 690 409 708 l 422 690 q 436 641 436 672 l 436 641 q 427 577 436 612 q 405 506 417 542 q 383 435 392 469 q 373 375 373 401 l 373 375 q 383 338 373 351 l 383 338 q 480 306 406 312 l 480 306 q 486 301 486 306 l 486 301 q 478 286 486 295 q 470 277 470 277 l 470 277 q 404 269 434 277 q 351 243 374 261 l 351 243 q 315 191 327 224 q 296 118 303 158 q 281 36 289 77 q 257 -41 273 -6 q 209 -98 241 -76 l 209 -98 q 146 -124 184 -115 q 61 -133 108 -133 l 61 -133 z"},"[":{"ha":411,"x_min":79,"x_max":434,"o":"m 233 -133 l 227 -133 q 96 -96 128 -133 l 96 -96 q 83 -68 86 -85 q 79 -32 79 -52 l 79 -32 q 89 39 79 1 q 110 108 99 76 q 123 156 120 140 l 123 156 q 130 190 124 162 q 143 256 135 217 q 160 335 151 294 q 175 408 168 375 q 184 456 181 441 l 184 456 q 195 515 189 481 q 211 583 201 548 q 235 647 220 617 q 274 695 250 677 l 274 695 q 335 721 297 712 q 419 729 373 729 l 419 729 l 423 729 q 434 723 434 729 l 434 723 q 428 712 434 718 q 418 706 422 706 l 418 706 q 315 679 345 706 l 315 679 q 302 667 309 674 q 286 639 294 659 l 286 639 q 257 546 272 602 q 225 426 241 490 q 195 296 209 361 q 169 173 181 230 q 149 74 157 115 q 137 18 140 33 l 137 18 q 131 -36 131 -12 l 131 -36 q 145 -84 131 -68 l 145 -84 q 235 -110 167 -110 l 235 -110 l 236 -110 q 242 -118 242 -110 l 242 -118 q 240 -128 242 -123 q 233 -133 237 -133 l 233 -133 z"},"]":{"ha":451,"x_min":71,"x_max":426,"o":"m 272 729 l 278 729 q 409 692 377 729 l 409 692 q 423 665 419 682 q 426 628 426 648 l 426 628 q 417 558 426 595 q 396 489 407 520 q 382 440 385 457 l 382 440 q 376 407 381 434 q 362 341 370 379 q 346 262 354 302 q 331 188 337 221 q 321 140 324 155 l 321 140 q 310 82 316 115 q 295 14 304 48 q 270 -51 285 -21 q 231 -99 255 -81 l 231 -99 q 171 -124 209 -116 q 86 -133 133 -133 l 86 -133 l 82 -133 q 71 -127 71 -133 l 71 -127 q 77 -116 71 -122 q 87 -110 83 -110 l 87 -110 q 190 -83 160 -110 l 190 -83 q 204 -70 196 -78 q 219 -43 212 -62 l 219 -43 q 249 50 233 -6 q 280 171 264 106 q 310 301 296 235 q 336 424 324 366 q 357 522 348 481 q 368 578 365 563 l 368 578 q 374 632 374 608 l 374 632 q 360 680 374 664 l 360 680 q 270 706 338 706 l 270 706 l 269 706 q 263 714 263 706 l 263 714 q 266 724 263 719 q 272 729 268 729 l 272 729 z"},"\"":{"ha":206,"x_min":105,"x_max":301,"o":"m 115 462 l 105 465 l 141 627 q 155 647 143 639 q 178 650 167 654 l 178 650 q 194 619 201 645 l 194 619 q 180 583 190 605 q 156 536 169 560 q 132 492 143 512 q 115 462 120 472 l 115 462 z m 215 462 l 205 465 l 241 627 q 255 647 243 639 q 278 650 267 654 l 278 650 q 294 619 301 645 l 294 619 q 280 583 290 605 q 256 536 269 560 q 232 492 243 512 q 215 462 220 472 l 215 462 z"},"'":{"ha":106,"x_min":105,"x_max":201,"o":"m 115 462 l 105 465 l 141 627 q 155 647 143 639 q 178 650 167 654 l 178 650 q 194 619 201 645 l 194 619 q 180 583 190 605 q 156 536 169 560 q 132 492 143 512 q 115 462 120 472 l 115 462 z"},"@":{"ha":1028,"x_min":135,"x_max":1008,"o":"m 513 -149 l 513 -149 q 320 -112 406 -149 q 185 -3 234 -76 q 135 175 135 69 l 135 175 q 165 334 135 258 q 248 474 195 410 q 369 584 300 537 q 517 656 438 630 q 676 682 595 682 l 676 682 q 795 668 736 682 q 902 622 853 653 q 979 541 950 590 q 1008 420 1008 491 l 1008 420 q 985 292 1008 358 q 919 170 962 226 q 814 79 875 114 q 676 44 752 44 l 676 44 q 639 52 659 44 q 605 80 619 60 q 590 136 590 100 l 590 136 q 593 166 590 150 q 601 201 596 182 l 601 201 q 571 154 589 181 q 530 100 553 126 q 480 56 507 73 q 424 38 453 38 l 424 38 q 372 67 391 38 q 352 145 352 96 l 352 145 q 377 260 352 195 q 459 393 402 325 l 459 393 q 549 464 496 437 q 653 491 602 491 l 653 491 q 708 482 682 491 q 752 450 733 472 l 752 450 q 761 430 761 440 l 761 430 q 756 417 761 422 q 740 414 750 412 l 740 414 q 717 449 733 437 q 680 460 700 460 l 680 460 q 631 446 656 460 l 631 446 q 543 373 588 422 q 462 264 498 323 l 462 264 q 443 229 456 254 q 420 173 430 203 q 409 118 409 143 l 409 118 q 418 85 409 95 q 441 74 427 74 l 441 74 q 487 93 463 74 q 535 141 511 111 q 579 203 558 170 q 616 263 600 235 q 640 307 632 291 l 640 307 q 678 368 660 346 q 723 389 695 389 l 723 389 q 751 385 736 389 q 780 382 765 380 l 780 382 q 753 346 770 373 q 716 284 735 319 q 683 212 697 248 q 662 146 668 175 l 662 146 q 659 118 659 130 l 659 118 q 674 79 659 90 q 711 67 689 67 l 711 67 q 789 89 751 67 q 859 147 826 110 q 916 230 891 184 q 954 324 940 275 q 968 419 968 373 l 968 419 q 944 532 968 485 q 878 607 919 578 q 785 648 837 635 q 678 661 733 661 l 678 661 q 528 635 600 661 q 396 563 456 609 q 290 454 335 516 q 219 318 244 391 q 194 167 194 245 l 194 167 q 236 5 194 70 q 351 -94 277 -61 q 521 -127 425 -127 l 521 -127 q 692 -98 606 -127 q 842 -23 777 -70 l 842 -23 q 852 -28 849 -23 q 854 -39 854 -34 l 854 -39 q 694 -119 783 -89 q 513 -149 605 -149 z"},"&":{"ha":610,"x_min":11,"x_max":749,"o":"m 263 -45 l 263 -45 q 122 -18 178 -45 q 39 52 66 8 q 11 144 11 95 l 11 144 q 44 254 11 199 q 143 348 77 308 q 303 397 208 387 l 303 397 q 282 441 289 416 q 275 487 275 465 l 275 487 q 305 581 276 540 q 380 649 334 621 q 477 692 425 677 q 575 706 529 706 l 575 706 q 632 699 603 706 q 681 672 661 691 q 701 618 701 653 l 701 618 q 683 566 701 589 q 639 543 665 543 l 639 543 q 606 557 620 543 q 592 589 592 571 l 592 589 q 606 624 592 610 q 639 637 619 637 l 639 637 q 660 631 648 637 q 674 619 671 625 l 674 619 q 675 630 675 623 l 675 630 q 653 668 675 657 q 606 679 631 679 l 606 679 q 513 660 566 679 q 410 596 460 640 l 410 596 q 373 554 392 580 q 341 499 354 528 q 328 439 328 469 l 328 439 q 336 399 328 416 l 336 399 q 371 401 351 399 q 411 402 390 402 l 411 402 q 452 391 437 402 q 467 366 467 380 l 467 366 q 455 347 467 356 q 417 338 443 338 l 417 338 q 358 353 384 338 q 316 382 331 367 l 316 382 q 204 333 250 373 q 134 239 158 293 q 110 130 110 184 l 110 130 q 127 50 110 87 q 177 -9 143 13 q 263 -32 211 -32 l 263 -32 q 362 -12 317 -32 q 438 38 406 7 q 488 104 470 69 q 505 168 505 138 l 505 168 q 487 212 505 194 q 438 238 468 229 q 374 246 408 246 l 374 246 q 305 237 339 246 q 246 208 270 227 q 217 158 222 188 l 217 158 q 217 154 217 156 q 216 149 216 151 l 216 149 q 233 106 216 127 q 284 66 249 84 l 284 66 q 293 51 293 62 l 293 51 q 283 45 293 40 l 283 45 q 203 109 228 74 q 177 174 177 143 l 177 174 q 226 252 177 219 q 364 284 274 284 l 364 284 l 541 284 q 589 291 557 284 q 653 312 620 298 q 710 344 686 325 q 733 386 733 362 l 733 386 q 724 414 733 399 l 724 414 q 722 421 722 417 l 722 421 q 727 427 722 427 l 727 427 q 734 422 731 427 l 734 422 q 749 377 749 400 l 749 377 q 730 327 749 350 q 677 287 710 304 q 604 260 644 269 q 521 252 563 251 l 521 252 q 549 216 540 236 q 558 174 558 196 l 558 174 q 536 99 558 137 q 474 28 514 60 q 381 -25 434 -5 q 263 -45 327 -45 z m 417 355 l 417 355 q 450 368 450 355 l 450 368 q 442 379 450 373 q 419 385 433 384 l 419 385 q 399 386 413 386 q 370 386 385 386 q 344 386 354 386 l 344 386 q 417 355 369 355 z"},"|":{"ha":463,"x_min":0,"x_max":463,"o":"m 44 -233 l 0 -233 l 419 752 l 463 752 l 44 -233 z"},"$":{"ha":452,"x_min":-67,"x_max":477,"o":"m 55 -56 l 21 -62 l 56 0 q 14 10 38 4 q -33 26 -11 16 q -67 52 -55 36 l -67 52 q -60 65 -67 57 q -50 76 -53 73 l -50 76 l -40 76 q 10 40 -18 54 q 68 20 38 26 l 68 20 l 218 294 q 177 354 196 321 q 158 422 158 386 l 158 422 q 179 493 158 463 q 233 541 200 522 q 305 569 266 560 q 377 578 343 578 l 377 578 l 405 630 l 437 635 l 403 575 q 461 543 444 568 q 477 489 477 518 l 477 489 q 462 443 477 463 q 422 422 446 422 l 422 422 q 391 436 404 422 q 378 467 378 449 l 378 467 q 391 499 378 486 q 423 511 403 511 l 423 511 q 442 506 431 511 q 454 495 453 501 l 454 495 q 431 538 450 525 q 391 555 412 550 l 391 555 l 273 342 q 319 272 298 310 q 340 193 340 234 l 340 193 q 316 108 340 145 q 253 47 292 71 q 170 10 214 22 q 83 -3 125 -3 l 83 -3 l 55 -56 z m 257 363 l 257 363 l 366 559 l 352 559 q 292 545 322 559 q 242 507 262 531 q 221 448 221 482 l 221 448 q 233 404 221 423 q 257 363 244 384 z m 236 273 l 95 18 q 180 38 138 18 q 250 93 222 57 q 277 174 277 128 l 277 174 q 265 227 277 201 q 236 273 252 252 l 236 273 z"},"+":{"ha":343,"x_min":54,"x_max":321,"o":"m 130 116 l 130 116 l 168 232 l 58 232 q 54 235 54 232 l 54 235 q 59 253 54 243 q 81 262 64 262 l 81 262 l 178 262 l 209 355 q 224 375 215 372 q 243 373 233 378 l 243 373 q 246 366 248 373 l 246 366 l 211 262 l 316 262 q 321 258 321 262 l 321 258 q 315 240 321 247 q 292 232 309 232 l 292 232 l 201 232 l 165 127 q 149 108 160 108 q 132 109 138 108 l 132 109 q 130 116 129 112 z"},"=":{"ha":378,"x_min":54,"x_max":356,"o":"m 292 178 l 58 178 q 54 181 54 178 l 54 181 q 59 199 54 189 q 81 208 64 208 l 81 208 l 316 208 q 321 204 321 208 l 321 204 q 315 186 321 193 q 292 178 309 178 l 292 178 z m 327 274 l 93 274 q 89 277 89 274 l 89 277 q 94 295 89 285 q 116 304 99 304 l 116 304 l 351 304 q 356 300 356 304 l 356 300 q 350 282 356 289 q 327 274 344 274 l 327 274 z"},">":{"ha":253,"x_min":37,"x_max":229,"o":"m 204 221 l 47 111 q 41 113 43 108 l 41 113 q 39 120 40 116 q 37 127 37 123 l 37 127 q 41 138 38 132 q 54 149 44 144 l 54 149 q 117 196 84 168 q 176 238 150 223 l 176 238 q 197 249 186 244 l 197 249 q 189 257 193 252 q 179 266 184 261 l 179 266 l 108 343 q 105 349 104 348 q 107 351 106 350 l 107 351 q 117 357 112 355 q 127 359 121 359 l 127 359 q 154 337 135 359 l 154 337 l 217 270 q 226 258 223 263 q 228 247 229 253 l 228 247 q 204 221 228 238 l 204 221 z"},"<":{"ha":235,"x_min":33,"x_max":219,"o":"m 138 112 l 138 112 l 47 216 q 38 227 43 221 q 34 240 33 233 l 34 240 q 46 261 34 253 l 46 261 l 159 334 q 185 351 176 345 q 199 356 194 356 l 199 356 q 209 353 205 356 q 216 345 213 349 l 216 345 q 213 336 219 341 l 213 336 l 96 260 q 65 243 79 249 l 65 243 q 74 237 69 241 q 86 225 79 232 l 86 225 q 103 204 92 219 q 126 173 113 189 q 149 147 139 157 l 149 147 q 158 129 160 136 l 158 129 q 146 112 158 121 l 146 112 q 138 112 142 108 z"},"~":{"ha":373,"x_min":53,"x_max":352,"o":"m 258 222 l 258 222 q 213 232 235 222 q 169 251 190 241 q 124 260 147 260 l 124 260 q 96 251 108 260 q 77 228 84 241 l 77 228 q 67 224 76 224 l 67 224 q 58 226 62 224 q 54 230 53 228 l 54 230 q 92 280 68 255 q 146 305 115 305 l 146 305 q 192 296 170 305 q 236 278 214 287 q 279 268 257 268 l 279 268 q 309 278 297 268 q 329 305 321 288 l 329 305 q 329 305 329 305 l 329 305 l 329 305 q 332 306 329 305 q 336 307 334 307 l 336 307 q 347 306 341 307 q 351 302 352 304 l 351 302 q 314 249 338 275 q 258 222 290 222 z"},"^":{"ha":321,"x_min":54,"x_max":299,"o":"m 287 310 l 287 310 q 251 360 271 328 q 214 424 231 391 q 187 476 197 456 l 187 476 q 145 423 169 455 q 99 360 121 390 q 60 313 76 330 l 60 313 l 54 320 q 73 348 58 326 q 106 398 87 369 q 145 454 125 426 q 181 501 165 482 q 204 521 197 520 l 204 521 l 215 515 q 240 453 226 490 q 269 381 254 416 q 295 328 283 346 l 295 328 l 299 320 q 295 311 299 315 q 287 310 290 307 z"},"%":{"ha":624,"x_min":-34,"x_max":623,"o":"m 5 -84 l -32 -84 l -34 -80 q 209 193 93 53 q 440 474 325 333 l 440 474 q 357 416 399 440 q 279 392 315 392 l 279 392 q 220 417 245 392 l 220 417 q 180 393 204 404 q 133 382 156 381 l 133 382 q 80 409 98 383 q 62 472 62 434 l 62 472 q 83 567 62 518 l 83 567 q 136 651 103 613 q 205 713 168 689 q 275 736 242 736 l 275 736 q 332 715 316 736 q 348 662 348 694 l 348 662 q 338 601 348 634 q 311 536 327 568 q 276 477 294 503 q 240 434 257 450 l 240 434 q 258 416 247 421 q 281 410 268 410 l 281 410 q 343 430 307 410 q 414 477 378 449 l 414 477 q 448 509 427 487 q 493 556 469 530 q 538 606 516 581 q 576 647 560 630 q 597 667 592 664 l 597 667 q 612 671 603 671 l 612 671 q 623 663 623 671 l 623 663 l 5 -84 z m 152 405 l 152 405 q 209 430 178 405 l 209 430 q 199 454 203 441 q 194 477 194 467 l 194 477 q 202 509 194 495 q 228 523 209 523 l 228 523 q 250 515 241 523 q 259 493 259 507 l 259 493 q 256 483 259 487 l 256 483 q 282 529 267 498 q 309 595 297 559 q 321 658 321 630 l 321 658 q 313 690 321 678 q 285 702 305 702 l 285 702 q 218 665 254 702 q 153 569 181 628 l 153 569 q 128 504 137 534 q 118 449 118 473 l 118 449 q 127 417 118 429 q 152 405 135 405 z m 354 -29 l 354 -29 q 299 -4 317 -29 q 281 59 281 21 l 281 59 q 302 153 281 104 l 302 153 q 353 237 321 199 q 421 299 384 275 q 490 322 457 322 l 490 322 q 550 300 531 322 q 568 244 568 278 l 568 244 q 556 177 568 213 q 521 104 543 140 q 472 37 499 67 q 414 -11 444 7 q 354 -29 383 -29 z m 359 -7 l 359 -7 q 372 -9 367 -9 l 372 -9 q 412 5 393 -9 q 447 38 431 19 q 474 70 463 57 l 474 70 q 500 116 485 84 q 525 173 515 147 l 525 173 q 536 210 532 192 q 540 243 540 228 l 540 243 q 532 277 540 264 q 502 290 523 290 l 502 290 q 457 272 481 290 q 411 224 433 254 q 371 157 389 194 l 371 157 q 346 91 355 122 q 336 36 336 59 l 336 36 q 359 -7 336 0 z"},"`":{"ha":183,"x_min":31,"x_max":144,"o":"m 129 395 l 129 395 q 109 417 123 401 q 79 451 95 432 q 49 488 62 470 q 31 514 36 505 l 31 514 q 46 544 37 538 q 61 547 54 549 l 61 547 l 144 398 q 129 395 143 391 z"}}}
